<?xml version="1.0" encoding="utf-8"?>
<!-- Generator: Adobe Illustrator 22.0.1, SVG Export Plug-In . SVG Version: 6.00 Build 0)  -->
<svg version="1.1" id="Layer_1" xmlns="http://www.w3.org/2000/svg" xmlns:xlink="http://www.w3.org/1999/xlink" x="0px" y="0px"
	 viewBox="0 0 32 32" style="enable-background:new 0 0 32 32;" xml:space="preserve">
<style type="text/css">
	.st0{fill:none;}
	.st1{fill:#E0A742;}
</style>
<rect y="0" class="st0" width="32" height="32"/>
<g>
	<g>
		<path class="st1" d="M18.8,25.4c-0.8-0.1-1.5-0.8-2.1-1.5c-0.2-0.2-0.5-0.5-0.7-0.7c-0.2,0.2-0.4,0.4-0.7,0.7
			c-0.6,0.7-1.3,1.4-2.1,1.5c0.1,1.5,1.3,2.6,2.8,2.6C17.5,28,18.7,26.9,18.8,25.4z"/>
		<path class="st1" d="M5.4,15.2c1.2,0,2.1-0.3,2.8-0.6V9.5C8.2,9.2,8.4,9,8.6,9s0.5,0.2,0.5,0.5v4.4v1.2L9,15.2
			c-1,1-1.5,2.3-1.5,3.8c0,3,2.5,5.5,5.5,5.5c0,0,0.1,0,0.2,0c0.4-0.1,1-0.7,1.4-1.2c0.3-0.3,0.6-0.6,0.9-0.9v-1.9
			c-0.2,0-0.5-0.1-0.7-0.2c-1-0.5-1.7-1.5-1.7-2.6c0-1.6,1.3-2.9,2.9-2.9c1.6,0,2.9,1.3,2.9,2.9c0,1.2-0.7,2.2-1.7,2.6
			c-0.2,0.1-0.5,0.2-0.7,0.2v1.9c0.3,0.2,0.6,0.5,0.9,0.9c0.4,0.5,1,1.1,1.4,1.2c0.1,0,0.1,0,0.2,0c3,0,5.5-2.5,5.5-5.5
			c0-1.5-0.5-2.8-1.5-3.8l-0.1-0.1v-1.2V9.5c0-0.3,0.2-0.5,0.5-0.5c0.3,0,0.5,0.2,0.5,0.5v5.1c0.6,0.3,1.5,0.6,2.8,0.6
			c3.5,0,0.9-11.3-6.2-11.3H16h-4.4C4.4,4,1.9,15.2,5.4,15.2z M17.9,10.3C17.9,10.3,17.9,10.3,17.9,10.3c0.5,0,1,0.4,1,1
			c0,0.2-0.1,0.5-0.2,0.6c-0.2,0.2-0.4,0.3-0.7,0.3c0,0,0,0,0,0c-0.5,0-0.9-0.4-1-0.9c0,0,0,0,0,0C16.9,10.8,17.3,10.3,17.9,10.3z
			 M14.1,10.3c0.5,0,1,0.4,1,1c0,0,0,0,0,0c0,0.5-0.4,0.9-1,0.9c-0.3,0-0.5-0.1-0.7-0.3c-0.1-0.2-0.2-0.4-0.2-0.6
			C13.2,10.8,13.6,10.3,14.1,10.3z"/>
	</g>
</g>
</svg>
