<?xml version="1.0" encoding="utf-8"?>
<!-- Generator: Adobe Illustrator 22.0.1, SVG Export Plug-In . SVG Version: 6.00 Build 0)  -->
<svg version="1.1" id="Layer_1" xmlns="http://www.w3.org/2000/svg" xmlns:xlink="http://www.w3.org/1999/xlink" x="0px" y="0px"
	 viewBox="0 0 32 32" style="enable-background:new 0 0 32 32;" xml:space="preserve">
<style type="text/css">
	.st0{fill:#E0A742;}
</style>
<path class="st0" d="M22.7,21.3c-0.6,0.3-1.9,0.7-3.2,0.7c-1.4,0-2.8-0.4-3.7-1.5c-0.4-0.5-0.7-1.1-0.9-2H22v-2h-7.5
	c0-0.1,0-0.3,0-0.5c0-0.3,0-0.6,0-0.9H22v-2h-7.1c0.2-0.7,0.5-1.4,0.9-1.8c0.9-1.1,2.1-1.5,3.5-1.5c1.2,0,2.4,0.4,3.2,0.7l0.8-3.2
	c-1-0.5-2.6-0.9-4.3-0.9c-2.7,0-5,1.1-6.6,2.9c-0.9,1-1.6,2.3-2,3.9H8.6v2h1.6c0,0.3,0,0.6,0,0.9c0,0.2,0,0.3,0,0.5H8.6v2h1.8
	c0.3,1.5,0.8,2.7,1.6,3.7c1.6,2.1,4.1,3.2,6.9,3.2c1.8,0,3.5-0.5,4.4-1.1L22.7,21.3z"/>
</svg>
