<?xml version="1.0" encoding="utf-8"?>
<!-- Generator: Adobe Illustrator 22.0.1, SVG Export Plug-In . SVG Version: 6.00 Build 0)  -->
<svg version="1.1" id="place" xmlns="http://www.w3.org/2000/svg" xmlns:xlink="http://www.w3.org/1999/xlink" x="0px" y="0px"
	 viewBox="0 0 32 32" style="enable-background:new 0 0 32 32;" xml:space="preserve">
<style type="text/css">
	.st0{fill:none;}
	.st1{fill:#E9AD3F;}
</style>
<g id="_x3C_Grupo_x3E__2_">
	<rect class="st0" width="32" height="32"/>
	<g transform="translate(0.000000,689.000000) scale(0.100000,-0.100000)">
		<path class="st1" d="M151.7,6876.5c-24.1-2.4-44.2-11.9-60.7-28.4c-11.1-11.2-18.8-23.5-23.5-38c-4.9-14.8-6.2-29.5-4.1-47.2
			c5.3-45.7,31.5-95.4,90.2-171.3l6.3-8.2l1.8,2.4c52.3,71.1,75.8,109.6,87.1,142.4c8.1,23.8,10.8,47.9,7.5,67.5
			c-7.9,47.1-49.3,81.7-97.2,81.1C155.8,6876.7,152.5,6876.6,151.7,6876.5z M167.2,6825.9c25.4-4.1,41.8-29.3,35.4-54.3
			c-7-27.3-37.7-41.1-62.8-28.1c-15.7,8-24.7,23.9-23.8,41.5c1,18.3,13.4,34.2,31,39.6C153.5,6826.6,160.4,6827,167.2,6825.9z"/>
	</g>
</g>
</svg>
