<?xml version="1.0" encoding="utf-8"?>
<!-- Generator: Adobe Illustrator 22.0.1, SVG Export Plug-In . SVG Version: 6.00 Build 0)  -->
<svg version="1.1" id="Layer_1_copy" xmlns="http://www.w3.org/2000/svg" xmlns:xlink="http://www.w3.org/1999/xlink" x="0px"
	 y="0px" viewBox="0 0 100 18.4" style="enable-background:new 0 0 100 18.4;" xml:space="preserve">
<style type="text/css">
	.st0{fill:#FDFEFE;}
	.st1{fill:#98B945;}
</style>
<path class="st0" d="M-0.1-0.2v18.8h100.2V-0.2H-0.1z M11.7,11.4l1.4,4.3l-3.6-2.6l-0.4-0.3l-0.4,0.3L5,15.7l1.4-4.3l0.2-0.5
	l-0.5-0.3L2.5,8.1h4.3h0.5l0.2-0.5L9,3.1l1.5,4.5l0.2,0.5h0.5h4.3L12,10.6l-0.5,0.3L11.7,11.4z M32.2,11.4l1.4,4.3l-3.6-2.6
	l-0.4-0.3L29,13.1l-3.6,2.6l1.4-4.3l0.2-0.5l-0.5-0.3l-3.6-2.5h4.3h0.5L28,7.5l1.5-4.5L31,7.5l0.2,0.5h0.5H36l-3.6,2.5L32,10.9
	L32.2,11.4z M52.6,11.4l1.4,4.3l-3.6-2.6l-0.4-0.3l-0.4,0.3l-3.6,2.6l1.4-4.3l0.2-0.5l-0.5-0.3l-3.6-2.5h4.3h0.5l0.2-0.5l1.5-4.5
	l1.5,4.5l0.2,0.5h0.5h4.3l-3.6,2.5l-0.5,0.3L52.6,11.4z M73,11.4l1.4,4.3l-3.6-2.6l-0.4-0.3l-0.4,0.3l-3.6,2.6l1.4-4.3l0.2-0.5
	l-0.5-0.3l-3.6-2.5h4.3h0.5l0.2-0.5l1.5-4.5l1.5,4.5L72,8.1h0.5h4.3l-3.6,2.5l-0.5,0.3L73,11.4z M93.4,11.4l1.4,4.3l-3.6-2.6
	l-0.4-0.3l-0.4,0.3l-3.6,2.6l1.4-4.3l0.2-0.5l-0.5-0.3l-3.6-2.5h4.3h0.5l0.2-0.5l1.5-4.5l1.5,4.5l0.2,0.5h0.5h4.3l-3.6,2.5l-0.5,0.3
	L93.4,11.4z"/>
<g>
	<g>
		<path class="st1" d="M52.1,7.3l-2.2-6.6l-2.2,6.6H41l5.5,3.9l-2.1,6.5l5.5-4l5.5,4l-2.1-6.5l5.5-3.9H52.1z M52.6,11.4l1.4,4.3
			l-3.6-2.6l-0.4-0.3l-0.4,0.3l-3.6,2.6l1.4-4.3l0.2-0.5l-0.5-0.3l-3.6-2.5h4.3h0.5l0.2-0.5l1.5-4.5l1.5,4.5l0.2,0.5h0.5h4.3
			l-3.6,2.5l-0.5,0.3L52.6,11.4z M11.3,7.3L9,0.7L6.8,7.3H0.1l5.5,3.9l-2.1,6.5l5.5-4l5.5,4l-2.1-6.5L18,7.3H11.3z M11.7,11.4
			l1.4,4.3l-3.6-2.6l-0.4-0.3l-0.4,0.3L5,15.7l1.4-4.3l0.2-0.5l-0.5-0.3L2.5,8.1h4.3h0.5l0.2-0.5L9,3.1l1.5,4.5l0.2,0.5h0.5h4.3
			L12,10.6l-0.5,0.3L11.7,11.4z M31.7,7.3l-2.2-6.6l-2.2,6.6h-6.7l5.5,3.9L24,17.7l5.5-4l5.5,4l-2.1-6.5l5.5-3.9H31.7z M32.2,11.4
			l1.4,4.3l-3.6-2.6l-0.4-0.3L29,13.1l-3.6,2.6l1.4-4.3l0.2-0.5l-0.5-0.3l-3.6-2.5h4.3h0.5L28,7.5l1.5-4.5L31,7.5l0.2,0.5h0.5H36
			l-3.6,2.5L32,10.9L32.2,11.4z M72.5,7.3l-2.2-6.6l-2.2,6.6h-6.7l5.5,3.9l-2.1,6.5l5.5-4l5.5,4l-2.1-6.5l5.5-3.9H72.5z M73,11.4
			l1.4,4.3l-3.6-2.6l-0.4-0.3l-0.4,0.3l-3.6,2.6l1.4-4.3l0.2-0.5l-0.5-0.3l-3.6-2.5h4.3h0.5l0.2-0.5l1.5-4.5l1.5,4.5L72,8.1h0.5h4.3
			l-3.6,2.5l-0.5,0.3L73,11.4z M99.6,7.3h-6.7l-2.2-6.6l-2.2,6.6h-6.7l5.5,3.9l-2.1,6.5l5.5-4l5.5,4l-2.1-6.5L99.6,7.3z M94.8,15.7
			l-3.6-2.6l-0.4-0.3l-0.4,0.3l-3.6,2.6l1.4-4.3l0.2-0.5l-0.5-0.3l-3.6-2.5h4.3h0.5l0.2-0.5l1.5-4.5l1.5,4.5l0.2,0.5h0.5h4.3
			l-3.6,2.5l-0.5,0.3l0.2,0.5L94.8,15.7z"/>
	</g>
</g>
</svg>
