<?xml version="1.0" encoding="utf-8"?>
<!-- Generator: Adobe Illustrator 22.0.1, SVG Export Plug-In . SVG Version: 6.00 Build 0)  -->
<svg version="1.1" id="Layer_1" xmlns="http://www.w3.org/2000/svg" xmlns:xlink="http://www.w3.org/1999/xlink" x="0px" y="0px"
	 viewBox="0 0 32 32" style="enable-background:new 0 0 32 32;" xml:space="preserve">
<style type="text/css">
	.st0{fill:#E0A742;}
</style>
<path class="st0" d="M9.2,14.9c0-3.2,2.5-5.7,5.7-5.7s5.7,2.5,5.7,5.7c0,3.2-2.5,5.7-5.7,5.7S9.2,18.1,9.2,14.9z M25,23.4l-3.7-3.7
	c1-1.4,1.6-3,1.6-4.8c0-4.4-3.5-7.9-7.9-7.9C10.5,7,7,10.5,7,14.9s3.5,7.9,7.9,7.9c1.8,0,3.4-0.6,4.8-1.6l3.7,3.7L25,23.4z"/>
</svg>
