<?xml version="1.0" encoding="utf-8"?>
<!-- Generator: Adobe Illustrator 22.0.1, SVG Export Plug-In . SVG Version: 6.00 Build 0)  -->
<svg version="1.1" id="Layer_1" xmlns="http://www.w3.org/2000/svg" xmlns:xlink="http://www.w3.org/1999/xlink" x="0px" y="0px"
	 viewBox="0 0 32 32" style="enable-background:new 0 0 32 32;" xml:space="preserve">
<style type="text/css">
	.st0{fill:none;}
	.st1{fill:#E0A742;}
</style>
<rect y="0" class="st0" width="32" height="32"/>
<g id="Group_156" transform="translate(686.063 715)">
	<path id="Path_302" class="st1" d="M-669.1-697.5l2.6-2.6c0.3,0.8,0.4,1.6,0.4,2.4c0,0.7-0.9,2.4-0.9,2.4
		C-668-695.6-668.8-696.4-669.1-697.5z"/>
	<path id="Path_303" class="st1" d="M-670.7-695.9l1.2-1.2c0.2,0.5,0.4,1,0.4,1C-669.6-695.9-670.1-695.8-670.7-695.9z"/>
	<path id="Path_304" class="st1" d="M-671.5-707.5c0.6,0.9,1.1,1.8,1.4,2.8c0.1,0.4,0.3,0.7,0.3,1l-2.5,2.5
		c-0.2-0.5-0.4-1.1-0.4-1.6C-672.7-704.2-671.5-707.5-671.5-707.5z"/>
	<path id="Path_305" class="st1" d="M-675.7-701.1c0.9,0.2,1.8,0.4,2.6,0.8l-1.4,1.4C-675.2-700-675.7-701.1-675.7-701.1z"/>
	<path id="Path_306" class="st1" d="M-679.5-707.1c0.6-0.7,1.2-1.4,1.9-2c0,0.1,0,0.2,0,0.3l0.1,0.7c0,0.2,0.1,0.4,0.1,0.6
		c0,0.1,0.1,0.2,0.1,0.3l0.1,0.3c0,0,0,0.1,0,0.1c0,0,0,0.1,0,0.1c0,0,0,0.1,0.1,0.1l0,0.1c-0.1,0-0.1,0-0.2-0.1
		c-0.3-0.1-0.6-0.2-1-0.3c-0.1,0-0.3-0.1-0.4-0.1c-0.1,0-0.2,0-0.3-0.1c-0.1,0-0.1,0-0.2,0c0,0-0.1,0-0.1,0
		C-679.3-707.1-679.4-707.1-679.5-707.1z"/>
	<path id="Path_307" class="st1" d="M-669.8-695.6c0.4,0,0.9,0,1.3,0c0.5,0.2,1.1,0.4,1.5,0.8c0.9,0.6,1.6,1.3,2.7,3.5
		c1.1,2.1,1.3,4.2,1.6,4.6s-1.9,0.6-1.9,0.6c0.1-1.6-0.1-3.3-0.7-4.8C-666.7-693.7-669.8-695.6-669.8-695.6z"/>
	<path id="Path_308" class="st1" d="M-676.9-711.8c0,0,0,3.5,0.5,4.9c0.5,1.4,1.8,2.4,3.3,2.5c0,0,0.3-1.9,0-2.6
		c-0.3-1-0.9-1.9-1.5-2.6C-675.3-710.5-676.1-711.2-676.9-711.8z"/>
	<path id="Path_309" class="st1" d="M-679.3-706.3c0,0,1.5,3.2,2.5,4.2c1.1,1.1,2.7,1.4,4.1,0.9c0,0-0.6-1.9-1.1-2.3
		c-0.7-0.7-1.6-1.3-2.5-1.7C-677.3-705.7-678.3-706.1-679.3-706.3z"/>
	<path id="Path_310" class="st1" d="M-667.1-692.2c-2.5,0.9-5.3,0.6-7.5-0.8l11.5-11.5c2.3,3.5,1.7,8.2-1.6,10.9
		c0.1,0.1,0.1,0.2,0.2,0.3c0.1,0.2,0.2,0.3,0.3,0.5c0.1,0.2,0.2,0.4,0.3,0.6c0.1,0.1,0.1,0.2,0.2,0.3l0.1,0.2l0,0.1l0,0.1
		c0.1,0.2,0.2,0.4,0.3,0.6c0.1,0.2,0.1,0.4,0.2,0.5c5.3-3.9,6.4-11.3,2.5-16.6c-3.2-4.4-9.1-6-14.1-3.9c0,0,0.1,0.1,0.1,0.1
		c0.1,0.2,0.3,0.3,0.4,0.5c0.1,0.1,0.2,0.2,0.2,0.3c0.1,0.1,0.1,0.2,0.2,0.3c0.1,0.1,0.1,0.2,0.2,0.2c0.1,0.1,0.1,0.1,0.2,0.2
		c0.1,0.1,0.2,0.3,0.3,0.4l0.2,0.4c0.1,0.1,0.1,0.2,0.1,0.3c0,0.1,0.1,0.2,0.1,0.3c0,0,0,0,0,0.1c0.8-0.3,1.7-0.4,2.5-0.4
		c1.6,0,3.2,0.5,4.6,1.4c-3.9,3.9-7.7,7.7-11.5,11.5c-1.4-2.1-1.7-4.6-1-7c-0.1-0.1-0.1-0.2-0.2-0.3c-0.1-0.2-0.2-0.4-0.4-0.6
		c-0.1-0.2-0.2-0.4-0.3-0.6c-0.2-0.3-0.3-0.6-0.4-0.8c-0.2-0.3-0.3-0.6-0.5-0.9c0-0.1-0.1-0.2-0.1-0.3c0,0,0-0.1-0.1-0.1
		c0-0.1-0.1-0.2-0.1-0.3c-3.4,5.6-1.7,12.9,3.8,16.3c3.2,2,7.2,2.3,10.7,0.9c0-0.1,0-0.2-0.1-0.3c0-0.2-0.1-0.3-0.1-0.5
		c0-0.2-0.1-0.3-0.1-0.5c-0.1-0.4-0.3-0.7-0.5-1c-0.1-0.2-0.2-0.4-0.3-0.5C-666.9-691.9-667-692-667.1-692.2z"/>
</g>
</svg>
