<?xml version="1.0" encoding="utf-8"?>
<!-- Generator: Adobe Illustrator 21.1.0, SVG Export Plug-In . SVG Version: 6.00 Build 0)  -->
<svg version="1.1" id="Layer_1" xmlns="http://www.w3.org/2000/svg" xmlns:xlink="http://www.w3.org/1999/xlink" x="0px" y="0px"
	 viewBox="0 0 258.1 45" style="enable-background:new 0 0 258.1 45;" xml:space="preserve">
<style type="text/css">
	.st0{fill:#FFFFFF;}
	.st1{fill:#A83E2F;}
	.st2{fill:#C74F3E;}
</style>
<g id="Group_31" transform="translate(0 49)">
	<g id="Group_30" transform="translate(700 209)">
		<path id="Path_256" class="st0" d="M-693.5-253.9c-2,0.7-3.3,2.7-3.1,4.9v28.7c-0.2,1.8,0.7,3.5,2.3,4.5c1.9,1,4.2,0.5,6.3,0.6
			h238.2c1.7,0.1,3.3-0.6,4.3-1.9c0.9-1.3,0.9-2.9,0.9-4.4c-0.1-9.4,0.1-18.7-0.1-28.1c0-2.5-2.1-4.6-4.7-4.5c-0.1,0-0.3,0-0.4,0
			c-80.6-0.1-161.1-0.1-241.7-0.1C-692.1-254.2-692.8-254.1-693.5-253.9z"/>
		<path id="Path_257" class="st0" d="M-683.3-244.9c3-0.7,6.1-0.4,9.2-0.3c-1.1,0.5-2.2,0.9-3.3,1.2c0.9,1.4,1.8,3,1.5,4.8
			c-0.2,2.2-2.5,3.2-3,5.2c0.9,1.9,3.2,2.7,3.9,4.8s-0.1,4.4-1.8,5.7c-2.9,2-6.6,2.3-9.7,0.8c-2.1-0.9-3.1-3.7-1.8-5.5
			c1.5-2.5,4.6-2.8,7.2-3.1c-0.2-1-0.4-2.1-0.6-3.1c-1.8-0.3-4-0.7-4.9-2.4C-688.8-240-686.6-244.1-683.3-244.9 M-683.1-244.2
			c-3.3,1.7-1.8,6.9,1,8.3c1.3,0.6,2.8,0,3.4-1.3c0.2-0.5,0.3-1,0.2-1.6C-678.5-241.2-680.1-245.1-683.1-244.2 M-682.6-230.5
			c-2.3,0.2-4.8,2.3-3.6,4.8c1.8,2.8,6.5,3.4,8.8,0.9C-675.4-227.8-679.5-231.7-682.6-230.5L-682.6-230.5z"/>
		<path id="Path_258" class="st0" d="M-671.1-245.3h1.7c0,1.1,0.1,2.3,0.1,3.5l3.6,0.2v1.7c-1.2,0.1-2.3,0.1-3.6,0.1
			c-0.1,1.1-0.1,2.3-0.1,3.4h-1.7c-0.1-1.1-0.1-2.3-0.1-3.4c-1.2-0.1-2.3-0.1-3.5-0.1v-1.7l3.6-0.2
			C-671.1-243-671.1-244.1-671.1-245.3z"/>
		<g id="_x23_b13c2eff_1_" transform="translate(0 0)">
			<path id="Path_259" class="st1" d="M-693.5-253.9c0.7-0.2,1.3-0.3,2-0.3h241.7c2.6-0.2,4.8,1.7,5.1,4.2c0,0.1,0,0.2,0,0.3
				c0.1,9.4,0,18.7,0.1,28.1c0,1.5,0.1,3.1-0.9,4.4c-1,1.4-2.6,2.1-4.3,1.9H-688c-2.1-0.1-4.4,0.4-6.3-0.6c-1.5-0.9-2.4-2.7-2.3-4.5
				v-28.7C-696.7-251.2-695.5-253.2-693.5-253.9 M-694.4-252c-1.1,1.1-1,2.7-1,4.1c0.1,8.8,0.1,17.6,0,26.4c0.1,1.4-0.1,3,1,4.1
				c1.2,1.2,3.1,1,4.7,1c9.9-0.1,19.8,0.1,29.7-0.1c0.1-12.2,0.1-24.3,0-36.5c-9.9-0.1-19.8,0.1-29.7-0.1
				C-691.3-253-693.2-253.2-694.4-252 M-658.7-253c-0.1,12.2-0.1,24.3,0,36.5c69.4,0.1,138.9,0,208.3,0.1c1.2-0.1,2.6-0.1,3.5-1
				c1.1-1.1,1-2.7,1-4.1c-0.1-9,0-18,0-27c0-1.6-0.3-3.6-2.1-4.2c-2.1-0.6-4.3-0.3-6.5-0.3C-522.5-253-590.6-253.1-658.7-253z"/>
		</g>
		<g id="_x23_dd4b39ff_1_" transform="translate(1.153 1.14)">
			<path id="Path_260" class="st2" d="M-695.5-253.2c1.2-1.2,3.1-0.9,4.7-1c9.9,0.1,19.8-0.1,29.7,0.1c0.1,12.2,0.1,24.3,0,36.5
				c-9.9,0.2-19.8-0.1-29.7,0.1c-1.6-0.1-3.5,0.2-4.7-1c-1.1-1-1-2.7-1-4.1c0.1-8.8,0.1-17.6,0-26.4
				C-696.5-250.4-696.6-252.1-695.5-253.2 M-684.4-246.1c-3.3,0.8-5.4,5-3.4,7.9c1,1.7,3.1,2.1,4.9,2.4c0.2,1,0.3,2.1,0.6,3.1
				c-2.6,0.3-5.7,0.7-7.2,3.1c-1.1,1.8-0.6,4.1,1.2,5.2c0.2,0.1,0.4,0.2,0.6,0.3c3.2,1.4,6.8,1.1,9.7-0.8c1.8-1.3,2.5-3.6,1.8-5.7
				c-0.7-2.1-3-2.9-3.9-4.8c0.5-2,2.9-3,3-5.2c0.3-1.8-0.6-3.4-1.5-4.8c1.1-0.3,2.3-0.7,3.3-1.2
				C-678.3-246.5-681.4-246.8-684.4-246.1 M-672.2-246.5c0,1.1-0.1,2.3-0.1,3.5l-3.6,0.2v1.7c1.2,0.1,2.3,0.1,3.5,0.1
				c0.1,1.1,0.1,2.3,0.1,3.4h1.7c0.1-1.1,0.1-2.3,0.1-3.4c1.2-0.1,2.3-0.1,3.5-0.1v-1.7l-3.6-0.2c0-1.1,0-2.3-0.1-3.5H-672.2z"/>
			<path id="Path_261" class="st2" d="M-659.9-254.2c68.1-0.1,136.2,0,204.3-0.1c2.2,0.1,4.4-0.2,6.5,0.3c1.7,0.6,2.1,2.6,2.1,4.2
				c0,9-0.1,18,0,27c-0.1,1.4,0.1,3-1,4.1c-0.9,1-2.3,1-3.5,1c-69.4-0.1-138.9,0.1-208.3-0.1C-659.9-229.8-659.9-241.9-659.9-254.2z
				"/>
			<path id="Path_262" class="st2" d="M-684.3-245.3c3-0.9,4.6,3,4.6,5.4c0.3,1.4-0.7,2.8-2.1,3c-0.5,0.1-1.1,0-1.5-0.2
				C-686.1-238.4-687.5-243.7-684.3-245.3z"/>
			<path id="Path_263" class="st2" d="M-683.7-231.7c3.1-1.1,7.3,2.7,5.2,5.7c-2.3,2.4-7,1.9-8.8-0.9
				C-688.5-229.3-686-231.5-683.7-231.7z"/>
		</g>
	</g>
</g>
</svg>
