<?xml version="1.0" encoding="utf-8"?>
<!-- Generator: Adobe Illustrator 22.0.1, SVG Export Plug-In . SVG Version: 6.00 Build 0)  -->
<svg version="1.1" id="Layer_1" xmlns="http://www.w3.org/2000/svg" xmlns:xlink="http://www.w3.org/1999/xlink" x="0px" y="0px"
	 viewBox="0 0 32 32" style="enable-background:new 0 0 32 32;" xml:space="preserve">
<style type="text/css">
	.st0{fill:#E0A742;}
	.st1{fill:none;}
</style>
<g id="black-and-white-credit-cards" transform="translate(807.199 715)">
	<g id="Group_158">
		<path id="Path_311" class="st0" d="M-780.1-699.8l-10.9-10.9c-0.9-0.9-2.2-0.9-3.1,0c0,0,0,0,0,0l-6,6c-0.9,0.9-0.9,2.3,0,3.1l1,1
			h2.3l-2.1-2.2c-0.1-0.1-0.2-0.3-0.2-0.4c0-0.2,0.1-0.3,0.2-0.4l0.8-0.8l3.7,3.8h3.6l-5.5-5.6l3.4-3.4c0.1-0.1,0.3-0.2,0.4-0.2
			c0.2,0,0.3,0.1,0.4,0.2l10.9,10.9c0.1,0.1,0.2,0.3,0.2,0.4c0,0.2-0.1,0.3-0.2,0.4l-0.6,0.6v2.3l1.8-1.7
			C-779.3-697.5-779.3-698.9-780.1-699.8z"/>
		<path id="Path_312" class="st0" d="M-785.2-699.5h-15.4c-1.2,0-2.2,1-2.2,2.2v5.8h19.8v-5.8C-783.1-698.5-784-699.5-785.2-699.5
			C-785.2-699.5-785.2-699.5-785.2-699.5z M-797.5-693.5c-0.4,0-0.8-0.2-1.1-0.4c-0.6,0.6-1.6,0.6-2.3,0s-0.6-1.6,0-2.3
			c0.6-0.6,1.6-0.6,2.2,0c0.6-0.6,1.6-0.6,2.3,0c0.6,0.6,0.6,1.6,0,2.3C-796.7-693.7-797.1-693.5-797.5-693.5z"/>
		<path id="Path_313" class="st0" d="M-802.9-688.9c0,1.2,1,2.2,2.2,2.2h15.4c1.2,0,2.2-1,2.2-2.2c0,0,0,0,0,0v-0.1h-19.8V-688.9z"
			/>
	</g>
</g>
<rect y="0" class="st1" width="32" height="32"/>
</svg>
