<?xml version="1.0" encoding="utf-8"?>
<!-- Generator: Adobe Illustrator 22.0.1, SVG Export Plug-In . SVG Version: 6.00 Build 0)  -->
<svg version="1.1" id="Layer_1" xmlns="http://www.w3.org/2000/svg" xmlns:xlink="http://www.w3.org/1999/xlink" x="0px" y="0px"
	 viewBox="0 0 1119 150" style="enable-background:new 0 0 1119 150;" xml:space="preserve">
<style type="text/css">
	.st0{fill:#99CC33;}
	.st1{fill:#E9AD3F;}
</style>
<g>
	<g id="_x23_fffbf2ff">
	</g>
	<path class="st0" d="M7.7,7.7c-1,0,31.4-0.6,43.6-0.6c17.7,0,25.5,3.4,32.3,9.7c6.9,6.4,9.5,17.1,9.5,24.7
		c0,8.2-2.9,24.5-19.3,29.8c14,1.8,27.2,11.7,27.2,32.8c0,14.3-7.9,25.7-15.4,30.2c-7.6,4.6-18.8,7.2-29.7,7.2H7.7V7.7z M55.4,67.4
		c5.7,0,14.7-2.4,18.6-5c6.1-4.4,10.8-9.9,10.8-20.9c0-14.9-8.6-24.7-31.3-24.7c-7.4,0-38,0.6-37.9,0.6v50.1L55.4,67.4L55.4,67.4z
		 M55.4,131.6c10.8,0,20.8-2.6,26.4-6.2c6.1-3.8,11-11.3,11-20.9c0-10.7-4.7-20.1-14.7-23.9c-4.7-1.8-14.5-3.2-22.6-3.2H15.7v54.3
		h39.7V131.6z"/>
	<path class="st0" d="M300.6,7.7h6.1c76.4,89.9,99.7,116.4,99.7,116.4V7.7h8.3v133.7H410C332.4,51.1,308.7,23.6,308.7,23.6v117.8
		h-8.1V7.7z"/>
	<path class="st1" d="M459.6,7.7c0,0,38.9-0.8,45.1-0.8c11,0,21.8,2.4,29.1,8.2c7.1,5.6,12.5,14.9,12.5,28.8
		c0,18.3-7.9,29.2-20.1,35.8c-5.7,3-15.2,5-25,5h-33.5v56.7h-8.1V7.7z M503.9,74.9c7.9,0,18.8-3.2,24.2-7.8c6.1-5.2,10-14.1,10-22.9
		c0-20.7-16.1-27.3-34-27.3c-3.7,0-36.3,0.6-36.3,0.6V75L503.9,74.9L503.9,74.9z"/>
	<path class="st1" d="M576.1,7.5c0,0,38.9-0.8,45.1-0.8c7.8,0,17.1,0.4,22.8,2.4c12,4.4,19.4,16.5,19.4,33
		c0,10.7-4.6,21.7-10.6,26.9c-4.6,3.8-10.6,7.4-18.4,7.8c3,0.4,6.9,2.2,9.8,5.6c2.2,2.6,5.9,8.8,8.1,12.7l25.2,46.3h-9.8l-19.8-36.2
		c-4.6-8.4-7.9-14.3-12.5-18.5c-5.1-4.8-12-6-18.4-6h-32.8v60.7h-8.1V7.5z M621.4,71c6.3,0,14.9-1.2,20.6-4.4
		c6.9-3.8,13.2-12.5,13.2-24.5c0-12.3-5.1-20.5-13.3-24.1c-4.6-2-14.2-2-20.6-2c-5.7,0-37,1.2-37,1.2v53.9L621.4,71L621.4,71z"/>
	<path class="st1" d="M869.8,7.7h71.8v9.4h-63.7v50.3h56.3v9.7h-56.3v64.3h-8.1V7.7z"/>
	<path class="st1" d="M973.3,7.7h8.1v133.7h-8.1V7.7z"/>
	<path class="st1" d="M1058.3,17.1h-46.5V7.6H1113v9.5h-46.6v124.3h-8.1V17.1z"/>
	<g id="_x23_99cc33ff_1_">
		<path class="st0" d="M738.7,8.9c4.8-1.6,9.8-2.9,14.8-3.7c8.8-0.6,17.7-0.8,26.3,1.5c2.4,0.2,4.5,2.1,4.6,4.5
			c-0.2,1.9-1.5,4-3.6,4c-4.2,0.1-8.1-1.8-12.2-1.8c-6.6-0.2-13.4-0.5-19.8,1.4c-19.9,4.4-37,19.4-44.2,38.4
			c-2.8,7.6-4.3,15.7-4.2,23.8c0.6,5,0.5,10.1,2.1,14.9c3.5,10.6,9.6,20.3,17.6,28.1c1.6,1.5,3,3.3,4.6,4.9
			c16.5,13.3,40,16.7,59.8,9.4c19.5-7.1,34.8-24.6,39.3-44.8c0.6-3.2,1.3-6.4,1.6-9.7c-3.1-1.3-6.4-2.4-9-4.7
			c-5.3-4.5-7.9-11.4-9-18.1c-0.4-4.3-0.5-8.8,0.8-13c2-8.5,6.4-16.9,13.8-21.9c3.4-2.5,7.9-2.8,11.8-1.8c5.1,1.7,8.8,5.8,11.7,10.1
			c4.6,7.2,7.1,15.8,6.6,24.3c-0.6,5.7-2.2,11.4-5.5,16.1c-3,4.2-7.5,7.4-12.6,8.6c-0.8,5.8-1.5,11.7-3.3,17.3
			c-4.7,14.7-14.1,27.9-26.8,36.7c-11.3,8.2-25.2,12.6-39.1,13c-15.1,0.4-30.3-4.1-42.6-12.9c-13.6-10.4-23.6-25.3-28.1-41.7
			c-2-6-1.5-12.5-1.6-18.8c-0.2-11.1,3.2-22,8.4-31.6C708.8,26.5,722.6,14.7,738.7,8.9 M829,27.9c-1.8,0.5-3.4,1.6-4.8,2.9
			c-4.3,4.3-6.9,10.1-8.3,16c-1.3,5.3-0.2,10.8,1.6,15.9c1.7,3.9,4.9,7.4,9.1,8.4c3.3,0.5,7.1,0.3,9.8-2c5.1-4.1,6.9-10.9,7.1-17.2
			c-0.5-8-3.4-16.1-9.4-21.6C832.7,29.1,831,27.8,829,27.9z"/>
	</g>
	<g id="_x23_e9ad3fff_1_">
		<path class="st1" d="M173,11.2c7.2-3.7,15.1-5.8,23.1-7c7.9-0.5,15.9-0.8,23.6,1.2c21.9,4.4,40.9,20.2,49.9,40.6
			c2.7,6.7,5,13.8,5.5,21.1c1,7.4,0.4,14.9-1,22.2c-4.3,21.3-19.2,40.1-38.9,49.4c-5.4,2.5-11.1,4.4-17,5.7
			c-5.9,0.8-11.8,1.5-17.7,1.1c-5.1-0.6-10.4-0.9-15.3-2.8c-1-0.6-1.7-1.8-2.1-2.9c-0.6-2.3,1.4-4.6,3.6-5c2.3-0.2,4.5,1,6.7,1.3
			c5.7,0.7,11.5,1.6,17.3,0.6c8.7-0.7,17.3-3.4,24.8-7.8c11.1-6.3,20.1-16.2,25.8-27.7c2.1-4.8,3.8-9.9,4.9-15.1
			c0.4-4.3,1.2-8.5,1-12.8c-0.3-6.2-1.3-12.5-3.2-18.4c-3.1-8.7-7.7-16.9-14.3-23.5c-8.4-8.6-19.1-15.3-31-17.6
			c-6.1-1.8-12.4-1.5-18.7-1.4c-5.9,0.1-11.6,2-17.1,3.7c-16.7,6.3-30.5,19.9-36.7,36.7c-1.9,5.8-3.9,11.8-3.6,18
			c5.7,1.1,11.1,4.4,14.5,9.1c3.2,4.3,4.8,9.7,4.7,15.1c-0.1,8.2,0,16.4,0,24.6c0,3.1-3.7,5.4-6.4,3.8c-1.5-0.9-2.1-2.7-2-4.4
			c0-7.8,0-15.6,0-23.5c0-4.1-1-8.3-3.9-11.4c-1.9-2.3-4.5-3.6-7.1-4.7c-0.1,13.4-0.1,26.8-0.1,40.2c0.2,3.3-4.1,5.6-6.8,3.6
			c-1.5-0.8-1.7-2.6-1.7-4.2c0-13.2,0-26.4,0-39.6c-6.5,1.9-11.5,8.3-11.3,15.1c0,8.4,0.1,16.8,0,25.2c0.1,1.8-0.9,3.6-2.6,4.1
			c-1.4,0.2-3.2,0.4-4.3-0.8c-1.1-1-1.6-2.4-1.5-3.9c0-8.4,0-16.8,0-25.2c-0.1-5.3,2.4-10.3,5.4-14.6c3.4-4.6,8.8-7.5,14.3-8.6
			c0.1-8.3,2.4-16.3,5.6-24C146,31.4,158.1,18.6,173,11.2z"/>
	</g>
</g>
</svg>
