<?xml version="1.0" encoding="utf-8"?>
<!-- Generator: Adobe Illustrator 22.0.1, SVG Export Plug-In . SVG Version: 6.00 Build 0)  -->
<svg version="1.1" id="Layer_1" xmlns="http://www.w3.org/2000/svg" xmlns:xlink="http://www.w3.org/1999/xlink" x="0px" y="0px"
	 viewBox="0 0 1280 130" style="enable-background:new 0 0 1280 130;" xml:space="preserve">
<style type="text/css">
	.st0{fill:#8FB43D;}
	.st1{enable-background:new    ;}
	.st2{fill:#FFFFFF;}
</style>
<g id="Symbol_1_1_1_" transform="translate(0 -1973)">
	<rect id="Base_1_" x="-2.2" y="1971.1" class="st0" width="1284.3" height="133.8"/>
	<g>
		<g id="Group_6_1_" transform="translate(192 13)">
			<g class="st1">
				<path class="st2" d="M-33.8,1984.3l1.3,0.4c-0.2,0.7-0.5,1.2-1,1.6s-1,0.5-1.7,0.5c-0.9,0-1.6-0.3-2.1-0.9
					c-0.6-0.6-0.8-1.4-0.8-2.4c0-1.1,0.3-1.9,0.8-2.5c0.6-0.6,1.3-0.9,2.2-0.9c0.8,0,1.4,0.2,1.9,0.7c0.3,0.3,0.5,0.7,0.7,1.2
					l-1.3,0.3c-0.1-0.3-0.2-0.6-0.5-0.8c-0.2-0.2-0.5-0.3-0.9-0.3c-0.5,0-0.9,0.2-1.2,0.5c-0.3,0.3-0.5,0.9-0.5,1.7
					c0,0.8,0.1,1.4,0.4,1.8c0.3,0.3,0.7,0.5,1.2,0.5c0.4,0,0.7-0.1,0.9-0.3C-34,1985.1-33.9,1984.8-33.8,1984.3z"/>
				<path class="st2" d="M-31.6,1983.5c0-0.7,0.1-1.2,0.3-1.7c0.1-0.3,0.4-0.6,0.6-0.9c0.3-0.3,0.5-0.5,0.8-0.6
					c0.4-0.2,0.9-0.3,1.4-0.3c1,0,1.7,0.3,2.3,0.9c0.6,0.6,0.9,1.4,0.9,2.5c0,1.1-0.3,1.9-0.9,2.5c-0.6,0.6-1.3,0.9-2.3,0.9
					c-1,0-1.7-0.3-2.3-0.9C-31.3,1985.4-31.6,1984.5-31.6,1983.5z M-30.3,1983.5c0,0.7,0.2,1.3,0.5,1.7c0.3,0.4,0.8,0.6,1.3,0.6
					c0.5,0,1-0.2,1.3-0.6c0.3-0.4,0.5-0.9,0.5-1.7c0-0.7-0.2-1.3-0.5-1.7c-0.3-0.4-0.8-0.6-1.3-0.6c-0.5,0-1,0.2-1.3,0.6
					C-30.1,1982.1-30.3,1982.7-30.3,1983.5z"/>
				<path class="st2" d="M-24.2,1986.7v-6.5h1.3l2.7,4.4v-4.4h1.2v6.5h-1.3l-2.6-4.3v4.3H-24.2z"/>
				<path class="st2" d="M-16.2,1986.7v-5.4h-1.9v-1.1h5.2v1.1h-1.9v5.4H-16.2z"/>
				<path class="st2" d="M-6.9,1986.7h-1.4l-0.6-1.5h-2.6l-0.5,1.5h-1.4l2.5-6.5h1.4L-6.9,1986.7z M-9.3,1984.1l-0.9-2.4l-0.9,2.4
					H-9.3z"/>
				<path class="st2" d="M-2,1984.3l1.3,0.4c-0.2,0.7-0.5,1.2-1,1.6s-1,0.5-1.7,0.5c-0.9,0-1.6-0.3-2.1-0.9
					c-0.6-0.6-0.8-1.4-0.8-2.4c0-1.1,0.3-1.9,0.8-2.5c0.6-0.6,1.3-0.9,2.2-0.9c0.8,0,1.4,0.2,1.9,0.7c0.3,0.3,0.5,0.7,0.7,1.2
					l-1.3,0.3c-0.1-0.3-0.2-0.6-0.5-0.8c-0.2-0.2-0.5-0.3-0.9-0.3c-0.5,0-0.9,0.2-1.2,0.5c-0.3,0.3-0.5,0.9-0.5,1.7
					c0,0.8,0.1,1.4,0.4,1.8c0.3,0.3,0.7,0.5,1.2,0.5c0.4,0,0.7-0.1,0.9-0.3C-2.3,1985.1-2.1,1984.8-2,1984.3z"/>
				<path class="st2" d="M1.9,1986.7v-5.4h-1.9v-1.1h5.2v1.1H3.2v5.4H1.9z"/>
				<path class="st2" d="M8.5,1980.2h1.3v3.5c0,0.6,0,0.9,0,1.1c0.1,0.3,0.2,0.5,0.4,0.6c0.2,0.2,0.5,0.2,0.9,0.2
					c0.4,0,0.7-0.1,0.8-0.2c0.2-0.2,0.3-0.3,0.3-0.6s0.1-0.6,0.1-1.1v-3.6h1.3v3.4c0,0.8,0,1.3-0.1,1.7c-0.1,0.3-0.2,0.6-0.4,0.8
					c-0.2,0.2-0.4,0.4-0.8,0.5c-0.3,0.1-0.7,0.2-1.3,0.2c-0.6,0-1.1-0.1-1.4-0.2c-0.3-0.1-0.6-0.3-0.8-0.6c-0.2-0.2-0.3-0.5-0.4-0.7
					c-0.1-0.4-0.1-0.9-0.1-1.7V1980.2z"/>
				<path class="st2" d="M14.8,1984.6l1.3-0.1c0.1,0.4,0.2,0.7,0.5,0.9c0.2,0.2,0.6,0.3,1,0.3c0.4,0,0.7-0.1,1-0.3
					c0.2-0.2,0.3-0.4,0.3-0.6c0-0.2,0-0.3-0.1-0.4c-0.1-0.1-0.2-0.2-0.5-0.3c-0.2-0.1-0.5-0.1-1.1-0.3c-0.7-0.2-1.2-0.4-1.5-0.6
					c-0.4-0.4-0.6-0.8-0.6-1.3c0-0.3,0.1-0.6,0.3-0.9s0.5-0.5,0.8-0.7c0.4-0.2,0.8-0.2,1.3-0.2c0.8,0,1.4,0.2,1.9,0.5
					s0.6,0.8,0.7,1.4l-1.3,0.1c-0.1-0.3-0.2-0.6-0.4-0.7c-0.2-0.1-0.5-0.2-0.8-0.2c-0.4,0-0.7,0.1-0.9,0.2c-0.1,0.1-0.2,0.2-0.2,0.4
					c0,0.2,0.1,0.3,0.2,0.4c0.2,0.1,0.6,0.3,1.2,0.4s1.1,0.3,1.4,0.5c0.3,0.2,0.5,0.4,0.7,0.7s0.3,0.6,0.3,1c0,0.4-0.1,0.7-0.3,1.1
					c-0.2,0.3-0.5,0.6-0.9,0.7c-0.4,0.2-0.9,0.2-1.4,0.2c-0.8,0-1.5-0.2-1.9-0.6C15.1,1985.9,14.8,1985.3,14.8,1984.6z"/>
			</g>
			<g class="st1">
				<path class="st2" d="M-35.4,2021.7v-2.5h-2.5v-1h2.5v-2.5h1.1v2.5h2.5v1h-2.5v2.5H-35.4z"/>
				<path class="st2" d="M-30.6,2020.8l1.1-0.1c0.1,0.6,0.3,1.1,0.7,1.4s0.7,0.4,1.1,0.4c0.5,0,1-0.2,1.3-0.5
					c0.4-0.4,0.5-0.8,0.5-1.4c0-0.5-0.2-0.9-0.5-1.3c-0.3-0.3-0.8-0.5-1.3-0.5c-0.2,0-0.5,0-0.8,0.1l0.1-1c0.1,0,0.1,0,0.2,0
					c0.5,0,0.9-0.1,1.3-0.4c0.4-0.3,0.6-0.6,0.6-1.2c0-0.4-0.1-0.8-0.4-1c-0.3-0.3-0.6-0.4-1.1-0.4c-0.4,0-0.8,0.1-1.1,0.4
					c-0.3,0.3-0.5,0.7-0.6,1.2l-1.1-0.2c0.1-0.8,0.4-1.3,0.9-1.7c0.5-0.4,1.1-0.6,1.8-0.6c0.5,0,1,0.1,1.4,0.3
					c0.4,0.2,0.7,0.5,1,0.9c0.2,0.4,0.3,0.8,0.3,1.2c0,0.4-0.1,0.8-0.3,1.1s-0.5,0.6-0.9,0.8c0.5,0.1,1,0.4,1.3,0.8
					c0.3,0.4,0.4,0.9,0.4,1.5c0,0.8-0.3,1.5-0.9,2c-0.6,0.6-1.3,0.8-2.2,0.8c-0.8,0-1.5-0.2-2-0.7S-30.5,2021.5-30.6,2020.8z"/>
				<path class="st2" d="M-19.9,2023.2v-2.2h-4v-1l4.2-5.9h0.9v5.9h1.2v1h-1.2v2.2H-19.9z M-19.9,2020v-4.1l-2.9,4.1H-19.9z"/>
				<path class="st2" d="M-12.7,2021.1l1.1-0.1c0.1,0.5,0.3,0.9,0.5,1.1c0.3,0.2,0.6,0.3,1,0.3c0.3,0,0.6-0.1,0.9-0.2
					c0.3-0.2,0.5-0.4,0.6-0.6c0.2-0.3,0.3-0.6,0.4-1.1c0.1-0.4,0.2-0.9,0.2-1.4c0,0,0-0.1,0-0.2c-0.2,0.4-0.5,0.6-0.9,0.9
					c-0.4,0.2-0.8,0.3-1.3,0.3c-0.8,0-1.4-0.3-1.9-0.8c-0.5-0.5-0.8-1.3-0.8-2.2c0-0.9,0.3-1.7,0.8-2.2s1.2-0.8,2.1-0.8
					c0.6,0,1.1,0.2,1.6,0.5c0.5,0.3,0.9,0.8,1.1,1.4c0.3,0.6,0.4,1.4,0.4,2.6c0,1.2-0.1,2.1-0.4,2.8c-0.3,0.7-0.6,1.2-1.1,1.6
					c-0.5,0.4-1.1,0.5-1.8,0.5c-0.7,0-1.3-0.2-1.8-0.6C-12.3,2022.4-12.6,2021.8-12.7,2021.1z M-8.1,2017c0-0.6-0.2-1.2-0.5-1.5
					c-0.3-0.4-0.8-0.6-1.2-0.6c-0.5,0-0.9,0.2-1.3,0.6c-0.4,0.4-0.6,0.9-0.6,1.6c0,0.6,0.2,1.1,0.5,1.4c0.4,0.4,0.8,0.5,1.3,0.5
					c0.5,0,0.9-0.2,1.3-0.5C-8.3,2018.2-8.1,2017.7-8.1,2017z"/>
				<path class="st2" d="M-5.8,2020.8l1.1-0.1c0.1,0.6,0.3,1.1,0.7,1.4s0.7,0.4,1.1,0.4c0.5,0,1-0.2,1.3-0.5
					c0.4-0.4,0.5-0.8,0.5-1.4c0-0.5-0.2-0.9-0.5-1.3c-0.3-0.3-0.8-0.5-1.3-0.5c-0.2,0-0.5,0-0.8,0.1l0.1-1c0.1,0,0.1,0,0.2,0
					c0.5,0,0.9-0.1,1.3-0.4c0.4-0.3,0.6-0.6,0.6-1.2c0-0.4-0.1-0.8-0.4-1c-0.3-0.3-0.6-0.4-1.1-0.4c-0.4,0-0.8,0.1-1.1,0.4
					c-0.3,0.3-0.5,0.7-0.6,1.2l-1.1-0.2c0.1-0.8,0.4-1.3,0.9-1.7c0.5-0.4,1.1-0.6,1.8-0.6c0.5,0,1,0.1,1.4,0.3
					c0.4,0.2,0.7,0.5,1,0.9c0.2,0.4,0.3,0.8,0.3,1.2c0,0.4-0.1,0.8-0.3,1.1s-0.5,0.6-0.9,0.8c0.5,0.1,1,0.4,1.3,0.8
					c0.3,0.4,0.4,0.9,0.4,1.5c0,0.8-0.3,1.5-0.9,2c-0.6,0.6-1.3,0.8-2.2,0.8c-0.8,0-1.5-0.2-2-0.7S-5.7,2021.5-5.8,2020.8z"/>
				<path class="st2" d="M4.9,2020.8l1.1-0.1c0.1,0.6,0.3,1.1,0.7,1.4s0.7,0.4,1.1,0.4c0.5,0,1-0.2,1.3-0.5c0.4-0.4,0.5-0.8,0.5-1.4
					c0-0.5-0.2-0.9-0.5-1.3c-0.3-0.3-0.8-0.5-1.3-0.5c-0.2,0-0.5,0-0.8,0.1l0.1-1c0.1,0,0.1,0,0.2,0c0.5,0,0.9-0.1,1.3-0.4
					c0.4-0.3,0.6-0.6,0.6-1.2c0-0.4-0.1-0.8-0.4-1c-0.3-0.3-0.6-0.4-1.1-0.4c-0.4,0-0.8,0.1-1.1,0.4c-0.3,0.3-0.5,0.7-0.6,1.2
					l-1.1-0.2c0.1-0.8,0.4-1.3,0.9-1.7c0.5-0.4,1.1-0.6,1.8-0.6c0.5,0,1,0.1,1.4,0.3c0.4,0.2,0.7,0.5,1,0.9c0.2,0.4,0.3,0.8,0.3,1.2
					c0,0.4-0.1,0.8-0.3,1.1s-0.5,0.6-0.9,0.8c0.5,0.1,1,0.4,1.3,0.8c0.3,0.4,0.4,0.9,0.4,1.5c0,0.8-0.3,1.5-0.9,2
					c-0.6,0.6-1.3,0.8-2.2,0.8c-0.8,0-1.5-0.2-2-0.7S5,2021.5,4.9,2020.8z"/>
				<path class="st2" d="M15.6,2023.2v-2.2h-4v-1l4.2-5.9h0.9v5.9h1.2v1h-1.2v2.2H15.6z M15.6,2020v-4.1l-2.9,4.1H15.6z"/>
				<path class="st2" d="M19.1,2018.7c0-1.1,0.1-1.9,0.3-2.6c0.2-0.7,0.6-1.2,1-1.5c0.4-0.4,1-0.5,1.7-0.5c0.5,0,0.9,0.1,1.3,0.3
					c0.4,0.2,0.7,0.5,0.9,0.9c0.2,0.4,0.4,0.8,0.6,1.4c0.1,0.5,0.2,1.3,0.2,2.2c0,1.1-0.1,1.9-0.3,2.6c-0.2,0.7-0.5,1.2-1,1.5
					c-0.4,0.4-1,0.5-1.7,0.5c-0.9,0-1.6-0.3-2.1-0.9C19.4,2021.6,19.1,2020.4,19.1,2018.7z M20.2,2018.7c0,1.5,0.2,2.5,0.5,3
					c0.4,0.5,0.8,0.7,1.3,0.7s0.9-0.2,1.3-0.7s0.5-1.5,0.5-3c0-1.5-0.2-2.5-0.5-3c-0.4-0.5-0.8-0.7-1.3-0.7c-0.5,0-0.9,0.2-1.2,0.7
					C20.4,2016.2,20.2,2017.2,20.2,2018.7z"/>
				<path class="st2" d="M34,2023.2h-1.1v-7.1c-0.3,0.3-0.6,0.5-1.1,0.8c-0.4,0.3-0.8,0.5-1.2,0.6v-1.1c0.6-0.3,1.2-0.7,1.6-1.1
					c0.5-0.4,0.8-0.8,1-1.2H34V2023.2z"/>
				<path class="st2" d="M42.7,2022.1v1.1h-6c0-0.3,0-0.5,0.1-0.8c0.2-0.4,0.4-0.8,0.7-1.2c0.3-0.4,0.8-0.9,1.5-1.4
					c1-0.8,1.7-1.5,2-1.9c0.3-0.5,0.5-0.9,0.5-1.3c0-0.4-0.2-0.8-0.5-1.1s-0.7-0.5-1.2-0.5c-0.5,0-1,0.2-1.3,0.5
					c-0.3,0.3-0.5,0.8-0.5,1.3l-1.2-0.1c0.1-0.9,0.4-1.5,0.9-2c0.5-0.5,1.2-0.7,2.1-0.7c0.9,0,1.6,0.2,2.1,0.7
					c0.5,0.5,0.8,1.1,0.8,1.8c0,0.4-0.1,0.7-0.2,1.1c-0.1,0.4-0.4,0.7-0.7,1.1c-0.3,0.4-0.9,0.9-1.7,1.6c-0.7,0.6-1.1,0.9-1.3,1.1
					c-0.2,0.2-0.3,0.4-0.5,0.6H42.7z"/>
				<path class="st2" d="M47.5,2020.8l1.1-0.1c0.1,0.6,0.3,1.1,0.7,1.4s0.7,0.4,1.1,0.4c0.5,0,1-0.2,1.3-0.5
					c0.4-0.4,0.5-0.8,0.5-1.4c0-0.5-0.2-0.9-0.5-1.3c-0.3-0.3-0.8-0.5-1.3-0.5c-0.2,0-0.5,0-0.8,0.1l0.1-1c0.1,0,0.1,0,0.2,0
					c0.5,0,0.9-0.1,1.3-0.4c0.4-0.3,0.6-0.6,0.6-1.2c0-0.4-0.1-0.8-0.4-1c-0.3-0.3-0.6-0.4-1.1-0.4c-0.4,0-0.8,0.1-1.1,0.4
					c-0.3,0.3-0.5,0.7-0.6,1.2l-1.1-0.2c0.1-0.8,0.4-1.3,0.9-1.7c0.5-0.4,1.1-0.6,1.8-0.6c0.5,0,1,0.1,1.4,0.3
					c0.4,0.2,0.7,0.5,1,0.9c0.2,0.4,0.3,0.8,0.3,1.2c0,0.4-0.1,0.8-0.3,1.1s-0.5,0.6-0.9,0.8c0.5,0.1,1,0.4,1.3,0.8
					c0.3,0.4,0.4,0.9,0.4,1.5c0,0.8-0.3,1.5-0.9,2c-0.6,0.6-1.3,0.8-2.2,0.8c-0.8,0-1.5-0.2-2-0.7S47.6,2021.5,47.5,2020.8z"/>
				<path class="st2" d="M58.2,2023.2v-2.2h-4v-1l4.2-5.9h0.9v5.9h1.2v1h-1.2v2.2H58.2z M58.2,2020v-4.1l-2.9,4.1H58.2z"/>
			</g>
			<g class="st1">
				<path class="st2" d="M-37.7,2037.2v-1.3h1.1v1.3H-37.7z M-37.7,2045.1v-6.6h1.1v6.6H-37.7z"/>
				<path class="st2" d="M-34.9,2045.1v-6.6h1v0.9c0.5-0.7,1.2-1.1,2.1-1.1c0.4,0,0.8,0.1,1.1,0.2c0.3,0.1,0.6,0.3,0.8,0.6
					c0.2,0.2,0.3,0.5,0.3,0.8c0,0.2,0.1,0.6,0.1,1.1v4.1h-1.1v-4c0-0.5,0-0.8-0.1-1s-0.2-0.4-0.5-0.5c-0.2-0.1-0.5-0.2-0.8-0.2
					c-0.5,0-0.9,0.2-1.2,0.5c-0.3,0.3-0.5,0.9-0.5,1.7v3.6H-34.9z"/>
				<path class="st2" d="M-27.5,2045.1v-5.7h-1v-0.9h1v-0.7c0-0.4,0-0.8,0.1-1c0.1-0.3,0.3-0.5,0.6-0.7c0.3-0.2,0.7-0.3,1.1-0.3
					c0.3,0,0.7,0,1,0.1l-0.2,1c-0.2,0-0.5-0.1-0.7-0.1c-0.3,0-0.6,0.1-0.7,0.2s-0.2,0.4-0.2,0.8v0.6h1.3v0.9h-1.3v5.7H-27.5z"/>
				<path class="st2" d="M-24.7,2041.8c0-1.2,0.3-2.1,1-2.7c0.6-0.5,1.3-0.7,2.1-0.7c0.9,0,1.7,0.3,2.2,0.9c0.6,0.6,0.9,1.4,0.9,2.5
					c0,0.9-0.1,1.5-0.4,2c-0.3,0.5-0.6,0.9-1.1,1.1c-0.5,0.3-1,0.4-1.6,0.4c-0.9,0-1.7-0.3-2.2-0.9
					C-24.4,2043.7-24.7,2042.9-24.7,2041.8z M-23.5,2041.8c0,0.8,0.2,1.5,0.6,1.9c0.4,0.4,0.8,0.6,1.4,0.6c0.6,0,1-0.2,1.4-0.6
					c0.4-0.4,0.6-1.1,0.6-1.9c0-0.8-0.2-1.4-0.6-1.9c-0.4-0.4-0.8-0.6-1.4-0.6c-0.6,0-1,0.2-1.4,0.6
					C-23.3,2040.3-23.5,2040.9-23.5,2041.8z"/>
				<path class="st2" d="M-10.8,2044.1c-0.3,0.3-0.6,0.6-0.9,0.8c-0.3,0.2-0.7,0.3-1,0.3c-0.4,0-0.7-0.1-1.1-0.3
					c-0.3-0.2-0.6-0.5-0.9-1c-0.2-0.4-0.3-0.9-0.3-1.5c0-0.7,0.2-1.3,0.5-2c0.3-0.7,0.8-1.2,1.3-1.5c0.5-0.3,1-0.5,1.5-0.5
					c0.4,0,0.7,0.1,1,0.3c0.3,0.2,0.6,0.5,0.8,0.9l0.2-1h1.1l-0.9,4.2c-0.1,0.6-0.2,0.9-0.2,1c0,0.1,0,0.2,0.1,0.3
					c0.1,0.1,0.2,0.1,0.3,0.1c0.2,0,0.5-0.1,0.9-0.4c0.5-0.3,0.8-0.8,1.1-1.3c0.3-0.6,0.4-1.1,0.4-1.7c0-0.7-0.2-1.3-0.5-1.9
					c-0.4-0.6-0.9-1.1-1.6-1.4c-0.7-0.4-1.5-0.5-2.3-0.5c-1,0-1.9,0.2-2.7,0.7c-0.8,0.5-1.4,1.1-1.9,2c-0.4,0.8-0.7,1.8-0.7,2.7
					c0,1,0.2,1.9,0.7,2.6c0.4,0.7,1.1,1.3,1.9,1.6c0.8,0.4,1.8,0.5,2.8,0.5c1.1,0,2-0.2,2.7-0.5c0.7-0.4,1.3-0.8,1.7-1.3h1.1
					c-0.2,0.4-0.6,0.9-1.1,1.3c-0.5,0.5-1.1,0.8-1.8,1.1c-0.7,0.3-1.6,0.4-2.6,0.4c-0.9,0-1.8-0.1-2.6-0.4c-0.8-0.2-1.4-0.6-2-1.1
					c-0.5-0.5-1-1-1.2-1.6c-0.3-0.8-0.5-1.6-0.5-2.5c0-1,0.2-2,0.6-2.9c0.5-1.1,1.2-2,2.2-2.6c0.9-0.6,2.1-0.9,3.4-0.9
					c1,0,2,0.2,2.8,0.6c0.8,0.4,1.5,1,1.9,1.9c0.4,0.7,0.6,1.5,0.6,2.3c0,1.2-0.4,2.3-1.3,3.2c-0.8,0.8-1.6,1.3-2.5,1.3
					c-0.3,0-0.5,0-0.7-0.1c-0.2-0.1-0.3-0.2-0.4-0.4C-10.7,2044.5-10.7,2044.3-10.8,2044.1z M-13.8,2042.4c0,0.6,0.1,1,0.4,1.3
					c0.3,0.3,0.6,0.5,0.9,0.5c0.2,0,0.5-0.1,0.7-0.2c0.3-0.1,0.5-0.3,0.7-0.6c0.2-0.3,0.4-0.6,0.6-1c0.1-0.4,0.2-0.8,0.2-1.3
					c0-0.6-0.1-1-0.4-1.3c-0.3-0.3-0.6-0.5-1-0.5c-0.3,0-0.5,0.1-0.8,0.2c-0.2,0.1-0.5,0.4-0.7,0.7c-0.2,0.3-0.4,0.7-0.5,1.1
					C-13.7,2041.6-13.8,2042-13.8,2042.4z"/>
				<path class="st2" d="M-3.2,2045.1h-1v-9.1h1.1v3.3c0.5-0.6,1.1-0.9,1.8-0.9c0.4,0,0.8,0.1,1.2,0.2s0.7,0.4,0.9,0.7
					s0.4,0.7,0.6,1.1c0.1,0.4,0.2,0.9,0.2,1.3c0,1.1-0.3,2-0.8,2.6s-1.2,0.9-2,0.9c-0.8,0-1.4-0.3-1.8-1V2045.1z M-3.2,2041.7
					c0,0.8,0.1,1.4,0.3,1.7c0.4,0.6,0.8,0.9,1.4,0.9c0.5,0,0.9-0.2,1.3-0.6c0.4-0.4,0.5-1.1,0.5-1.9c0-0.9-0.2-1.5-0.5-1.9
					c-0.3-0.4-0.8-0.6-1.2-0.6c-0.5,0-0.9,0.2-1.3,0.6C-3,2040.3-3.2,2040.9-3.2,2041.7z"/>
				<path class="st2" d="M2.5,2041.8c0-1.2,0.3-2.1,1-2.7c0.6-0.5,1.3-0.7,2.1-0.7c0.9,0,1.7,0.3,2.2,0.9c0.6,0.6,0.9,1.4,0.9,2.5
					c0,0.9-0.1,1.5-0.4,2c-0.3,0.5-0.6,0.9-1.1,1.1c-0.5,0.3-1,0.4-1.6,0.4c-0.9,0-1.7-0.3-2.2-0.9
					C2.8,2043.7,2.5,2042.9,2.5,2041.8z M3.6,2041.8c0,0.8,0.2,1.5,0.6,1.9c0.4,0.4,0.8,0.6,1.4,0.6c0.6,0,1-0.2,1.4-0.6
					c0.4-0.4,0.6-1.1,0.6-1.9c0-0.8-0.2-1.4-0.6-1.9c-0.4-0.4-0.8-0.6-1.4-0.6c-0.6,0-1,0.2-1.4,0.6
					C3.8,2040.3,3.6,2040.9,3.6,2041.8z"/>
				<path class="st2" d="M10,2045.1v-6.6h1v0.9c0.5-0.7,1.2-1.1,2.1-1.1c0.4,0,0.8,0.1,1.1,0.2c0.3,0.1,0.6,0.3,0.8,0.6
					c0.2,0.2,0.3,0.5,0.3,0.8c0,0.2,0.1,0.6,0.1,1.1v4.1h-1.1v-4c0-0.5,0-0.8-0.1-1s-0.2-0.4-0.5-0.5c-0.2-0.1-0.5-0.2-0.8-0.2
					c-0.5,0-0.9,0.2-1.2,0.5c-0.3,0.3-0.5,0.9-0.5,1.7v3.6H10z"/>
				<path class="st2" d="M17.1,2047.6v-9.2h1v0.9c0.2-0.3,0.5-0.6,0.8-0.8s0.7-0.3,1.1-0.3c0.6,0,1.1,0.1,1.5,0.4s0.8,0.7,1,1.2
					c0.2,0.5,0.3,1.1,0.3,1.7c0,0.7-0.1,1.3-0.4,1.8s-0.6,1-1.1,1.2c-0.5,0.3-1,0.4-1.5,0.4c-0.4,0-0.7-0.1-1-0.2
					c-0.3-0.2-0.5-0.4-0.7-0.6v3.2H17.1z M18.1,2041.8c0,0.9,0.2,1.5,0.5,1.9c0.3,0.4,0.8,0.6,1.3,0.6c0.5,0,0.9-0.2,1.3-0.6
					c0.4-0.4,0.5-1.1,0.5-2c0-0.8-0.2-1.5-0.5-1.9c-0.3-0.4-0.8-0.6-1.2-0.6c-0.5,0-0.9,0.2-1.3,0.7
					C18.3,2040.3,18.1,2041,18.1,2041.8z"/>
				<path class="st2" d="M24.2,2045.1v-6.6h1v1c0.3-0.5,0.5-0.8,0.7-0.9c0.2-0.1,0.5-0.2,0.7-0.2c0.4,0,0.8,0.1,1.2,0.4l-0.4,1
					c-0.3-0.2-0.5-0.2-0.8-0.2c-0.2,0-0.5,0.1-0.7,0.2s-0.3,0.4-0.4,0.6c-0.1,0.4-0.2,0.8-0.2,1.3v3.5H24.2z"/>
				<path class="st2" d="M28,2041.8c0-1.2,0.3-2.1,1-2.7c0.6-0.5,1.3-0.7,2.1-0.7c0.9,0,1.7,0.3,2.2,0.9c0.6,0.6,0.9,1.4,0.9,2.5
					c0,0.9-0.1,1.5-0.4,2c-0.3,0.5-0.6,0.9-1.1,1.1c-0.5,0.3-1,0.4-1.6,0.4c-0.9,0-1.7-0.3-2.2-0.9C28.3,2043.7,28,2042.9,28,2041.8
					z M29.2,2041.8c0,0.8,0.2,1.5,0.6,1.9c0.4,0.4,0.8,0.6,1.4,0.6c0.6,0,1-0.2,1.4-0.6c0.4-0.4,0.6-1.1,0.6-1.9
					c0-0.8-0.2-1.4-0.6-1.9c-0.4-0.4-0.8-0.6-1.4-0.6c-0.6,0-1,0.2-1.4,0.6C29.4,2040.3,29.2,2040.9,29.2,2041.8z"/>
				<path class="st2" d="M35.8,2045.1v-5.7h-1v-0.9h1v-0.7c0-0.4,0-0.8,0.1-1c0.1-0.3,0.3-0.5,0.6-0.7c0.3-0.2,0.7-0.3,1.1-0.3
					c0.3,0,0.7,0,1,0.1l-0.2,1c-0.2,0-0.5-0.1-0.7-0.1c-0.3,0-0.6,0.1-0.7,0.2s-0.2,0.4-0.2,0.8v0.6h1.3v0.9h-1.3v5.7H35.8z"/>
				<path class="st2" d="M39.1,2037.2v-1.3h1.1v1.3H39.1z M39.1,2045.1v-6.6h1.1v6.6H39.1z"/>
				<path class="st2" d="M44.4,2044.1l0.2,1c-0.3,0.1-0.6,0.1-0.8,0.1c-0.4,0-0.7-0.1-0.9-0.2c-0.2-0.1-0.4-0.3-0.5-0.5
					s-0.1-0.7-0.1-1.3v-3.8h-0.8v-0.9h0.8v-1.6l1.1-0.7v2.3h1.1v0.9h-1.1v3.9c0,0.3,0,0.5,0.1,0.6c0,0.1,0.1,0.2,0.2,0.2
					c0.1,0.1,0.2,0.1,0.4,0.1C44,2044.1,44.2,2044.1,44.4,2044.1z"/>
				<path class="st2" d="M45.8,2045.1v-1.3h1.3v1.3H45.8z"/>
				<path class="st2" d="M53.3,2042.6l1.1,0.1c-0.1,0.8-0.4,1.4-0.9,1.8c-0.5,0.4-1.1,0.6-1.8,0.6c-0.9,0-1.6-0.3-2.2-0.9
					c-0.6-0.6-0.8-1.4-0.8-2.5c0-0.7,0.1-1.3,0.4-1.9s0.6-0.9,1.1-1.2c0.5-0.3,1-0.4,1.6-0.4c0.7,0,1.3,0.2,1.8,0.5s0.8,0.9,0.9,1.5
					l-1.1,0.2c-0.1-0.4-0.3-0.8-0.6-1c-0.3-0.2-0.6-0.3-1-0.3c-0.6,0-1,0.2-1.4,0.6c-0.4,0.4-0.5,1-0.5,1.9c0,0.9,0.2,1.5,0.5,1.9
					c0.3,0.4,0.8,0.6,1.3,0.6c0.4,0,0.8-0.1,1.1-0.4C53.1,2043.6,53.3,2043.2,53.3,2042.6z"/>
				<path class="st2" d="M55,2041.8c0-1.2,0.3-2.1,1-2.7c0.6-0.5,1.3-0.7,2.1-0.7c0.9,0,1.7,0.3,2.2,0.9c0.6,0.6,0.9,1.4,0.9,2.5
					c0,0.9-0.1,1.5-0.4,2c-0.3,0.5-0.6,0.9-1.1,1.1c-0.5,0.3-1,0.4-1.6,0.4c-0.9,0-1.7-0.3-2.2-0.9C55.3,2043.7,55,2042.9,55,2041.8
					z M56.1,2041.8c0,0.8,0.2,1.5,0.6,1.9c0.4,0.4,0.8,0.6,1.4,0.6c0.6,0,1-0.2,1.4-0.6c0.4-0.4,0.6-1.1,0.6-1.9
					c0-0.8-0.2-1.4-0.6-1.9c-0.4-0.4-0.8-0.6-1.4-0.6c-0.6,0-1,0.2-1.4,0.6C56.3,2040.3,56.1,2040.9,56.1,2041.8z"/>
				<path class="st2" d="M62.5,2045.1v-6.6h1v0.9c0.2-0.3,0.5-0.6,0.8-0.8c0.3-0.2,0.7-0.3,1.2-0.3c0.5,0,0.9,0.1,1.2,0.3
					c0.3,0.2,0.5,0.5,0.7,0.9c0.5-0.8,1.2-1.2,2-1.2c0.7,0,1.2,0.2,1.5,0.5c0.4,0.4,0.5,0.9,0.5,1.7v4.5h-1.1v-4.2
					c0-0.4,0-0.8-0.1-1c-0.1-0.2-0.2-0.4-0.4-0.5c-0.2-0.1-0.4-0.2-0.7-0.2c-0.5,0-0.9,0.2-1.2,0.5c-0.3,0.3-0.5,0.8-0.5,1.5v3.8
					h-1.1v-4.3c0-0.5-0.1-0.9-0.3-1.1c-0.2-0.2-0.5-0.4-0.9-0.4c-0.3,0-0.6,0.1-0.9,0.2c-0.3,0.2-0.5,0.4-0.6,0.7
					c-0.1,0.3-0.2,0.8-0.2,1.4v3.4H62.5z"/>
			</g>
		</g>
		<g id="Group_7_1_" transform="translate(142 13)">
			<g class="st1">
				<path class="st2" d="M206.6,1986.7v-6.5h1.3v6.5H206.6z"/>
				<path class="st2" d="M209.1,1986.7v-6.5h1.3l2.7,4.4v-4.4h1.2v6.5H213l-2.6-4.3v4.3H209.1z"/>
				<path class="st2" d="M215.7,1986.7v-6.5h4.5v1.1H217v1.5h2.7v1.1H217v2.8H215.7z"/>
				<path class="st2" d="M221,1983.5c0-0.7,0.1-1.2,0.3-1.7c0.1-0.3,0.4-0.6,0.6-0.9c0.3-0.3,0.5-0.5,0.8-0.6
					c0.4-0.2,0.9-0.3,1.4-0.3c1,0,1.7,0.3,2.3,0.9c0.6,0.6,0.9,1.4,0.9,2.5c0,1.1-0.3,1.9-0.9,2.5c-0.6,0.6-1.3,0.9-2.3,0.9
					c-1,0-1.7-0.3-2.3-0.9C221.3,1985.4,221,1984.5,221,1983.5z M222.4,1983.5c0,0.7,0.2,1.3,0.5,1.7c0.3,0.4,0.8,0.6,1.3,0.6
					c0.5,0,1-0.2,1.3-0.6c0.3-0.4,0.5-0.9,0.5-1.7c0-0.7-0.2-1.3-0.5-1.7c-0.3-0.4-0.8-0.6-1.3-0.6c-0.5,0-1,0.2-1.3,0.6
					C222.5,1982.1,222.4,1982.7,222.4,1983.5z"/>
				<path class="st2" d="M228.4,1986.7v-6.5h2.8c0.7,0,1.2,0.1,1.5,0.2s0.6,0.3,0.8,0.6s0.3,0.6,0.3,1c0,0.5-0.1,0.9-0.4,1.2
					c-0.3,0.3-0.7,0.5-1.3,0.6c0.3,0.2,0.5,0.3,0.7,0.5s0.4,0.6,0.8,1.1l0.8,1.3h-1.6l-1-1.4c-0.3-0.5-0.6-0.8-0.7-1
					c-0.1-0.1-0.3-0.2-0.4-0.3s-0.4-0.1-0.7-0.1h-0.3v2.7H228.4z M229.7,1983h1c0.6,0,1,0,1.2-0.1s0.3-0.1,0.4-0.3
					c0.1-0.1,0.1-0.3,0.1-0.5c0-0.2-0.1-0.4-0.2-0.5s-0.3-0.2-0.5-0.3c-0.1,0-0.4,0-1,0h-1V1983z"/>
				<path class="st2" d="M234.9,1986.7v-6.5h2l1.2,4.5l1.2-4.5h2v6.5H240v-5.1l-1.3,5.1h-1.3l-1.3-5.1v5.1H234.9z"/>
				<path class="st2" d="M248.4,1986.7H247l-0.6-1.5h-2.6l-0.5,1.5h-1.4l2.5-6.5h1.4L248.4,1986.7z M246,1984.1l-0.9-2.4l-0.9,2.4
					H246z"/>
				<path class="st2" d="M249.9,1986.7v-5.4H248v-1.1h5.2v1.1h-1.9v5.4H249.9z"/>
				<path class="st2" d="M254,1986.7v-6.5h1.3v6.5H254z"/>
				<path class="st2" d="M256.3,1983.5c0-0.7,0.1-1.2,0.3-1.7c0.1-0.3,0.4-0.6,0.6-0.9c0.3-0.3,0.5-0.5,0.8-0.6
					c0.4-0.2,0.9-0.3,1.4-0.3c1,0,1.7,0.3,2.3,0.9c0.6,0.6,0.9,1.4,0.9,2.5c0,1.1-0.3,1.9-0.9,2.5c-0.6,0.6-1.3,0.9-2.3,0.9
					c-1,0-1.7-0.3-2.3-0.9C256.6,1985.4,256.3,1984.5,256.3,1983.5z M257.7,1983.5c0,0.7,0.2,1.3,0.5,1.7c0.3,0.4,0.8,0.6,1.3,0.6
					c0.5,0,1-0.2,1.3-0.6c0.3-0.4,0.5-0.9,0.5-1.7c0-0.7-0.2-1.3-0.5-1.7c-0.3-0.4-0.8-0.6-1.3-0.6c-0.5,0-1,0.2-1.3,0.6
					C257.8,1982.1,257.7,1982.7,257.7,1983.5z"/>
				<path class="st2" d="M263.7,1986.7v-6.5h1.3l2.7,4.4v-4.4h1.2v6.5h-1.3l-2.6-4.3v4.3H263.7z"/>
			</g>
			<g class="st1">
				<path class="st2" d="M205.9,2023.2l3.5-9.1h1.3l3.7,9.1h-1.4l-1.1-2.8h-3.8l-1,2.8H205.9z M208.5,2019.4h3.1l-1-2.5
					c-0.3-0.8-0.5-1.4-0.6-1.9c-0.1,0.6-0.3,1.2-0.5,1.7L208.5,2019.4z"/>
				<path class="st2" d="M216.3,2023.2h-1v-9.1h1.1v3.3c0.5-0.6,1.1-0.9,1.8-0.9c0.4,0,0.8,0.1,1.2,0.2s0.7,0.4,0.9,0.7
					s0.4,0.7,0.6,1.1c0.1,0.4,0.2,0.9,0.2,1.3c0,1.1-0.3,2-0.8,2.6s-1.2,0.9-2,0.9c-0.8,0-1.4-0.3-1.8-1V2023.2z M216.3,2019.8
					c0,0.8,0.1,1.4,0.3,1.7c0.4,0.6,0.8,0.9,1.4,0.9c0.5,0,0.9-0.2,1.3-0.6c0.4-0.4,0.5-1.1,0.5-1.9c0-0.9-0.2-1.5-0.5-1.9
					c-0.3-0.4-0.8-0.6-1.2-0.6c-0.5,0-0.9,0.2-1.3,0.6C216.5,2018.4,216.3,2019,216.3,2019.8z"/>
				<path class="st2" d="M222,2019.9c0-1.2,0.3-2.1,1-2.7c0.6-0.5,1.3-0.7,2.1-0.7c0.9,0,1.7,0.3,2.2,0.9c0.6,0.6,0.9,1.4,0.9,2.5
					c0,0.9-0.1,1.5-0.4,2c-0.3,0.5-0.6,0.9-1.1,1.1c-0.5,0.3-1,0.4-1.6,0.4c-0.9,0-1.7-0.3-2.2-0.9
					C222.3,2021.9,222,2021,222,2019.9z M223.1,2019.9c0,0.8,0.2,1.5,0.6,1.9c0.4,0.4,0.8,0.6,1.4,0.6c0.6,0,1-0.2,1.4-0.6
					c0.4-0.4,0.6-1.1,0.6-1.9c0-0.8-0.2-1.4-0.6-1.9c-0.4-0.4-0.8-0.6-1.4-0.6c-0.6,0-1,0.2-1.4,0.6
					C223.3,2018.4,223.1,2019,223.1,2019.9z"/>
				<path class="st2" d="M233.8,2023.2v-1c-0.5,0.7-1.2,1.1-2.1,1.1c-0.4,0-0.8-0.1-1.1-0.2c-0.3-0.1-0.6-0.3-0.8-0.6
					s-0.3-0.5-0.3-0.8c0-0.2-0.1-0.6-0.1-1v-4.1h1.1v3.7c0,0.6,0,1,0.1,1.2c0.1,0.3,0.2,0.5,0.4,0.7c0.2,0.2,0.5,0.3,0.8,0.3
					c0.3,0,0.7-0.1,0.9-0.3s0.5-0.4,0.6-0.7s0.2-0.7,0.2-1.3v-3.5h1.1v6.6H233.8z"/>
				<path class="st2" d="M239,2022.2l0.2,1c-0.3,0.1-0.6,0.1-0.8,0.1c-0.4,0-0.7-0.1-0.9-0.2c-0.2-0.1-0.4-0.3-0.5-0.5
					s-0.1-0.7-0.1-1.3v-3.8H236v-0.9h0.8v-1.6l1.1-0.7v2.3h1.1v0.9h-1.1v3.9c0,0.3,0,0.5,0.1,0.6c0,0.1,0.1,0.2,0.2,0.2
					c0.1,0.1,0.2,0.1,0.4,0.1C238.7,2022.2,238.8,2022.2,239,2022.2z"/>
				<path class="st2" d="M243.8,2023.2v-9.1h3.4c0.7,0,1.3,0.1,1.7,0.3s0.8,0.5,1,0.9c0.2,0.4,0.4,0.8,0.4,1.2
					c0,0.4-0.1,0.8-0.3,1.1s-0.5,0.6-1,0.8c0.6,0.2,1,0.4,1.3,0.8c0.3,0.4,0.4,0.9,0.4,1.4c0,0.4-0.1,0.8-0.3,1.2
					c-0.2,0.4-0.4,0.7-0.7,0.9c-0.3,0.2-0.6,0.3-1,0.5c-0.4,0.1-0.9,0.2-1.5,0.2H243.8z M245,2017.9h2c0.5,0,0.9,0,1.2-0.1
					c0.3-0.1,0.5-0.2,0.7-0.5s0.2-0.5,0.2-0.8c0-0.3-0.1-0.6-0.2-0.8c-0.1-0.2-0.4-0.4-0.6-0.5s-0.7-0.1-1.4-0.1H245V2017.9z
					 M245,2022.1h2.3c0.4,0,0.7,0,0.8,0c0.3,0,0.5-0.1,0.7-0.2s0.3-0.3,0.5-0.5c0.1-0.2,0.2-0.5,0.2-0.8c0-0.3-0.1-0.6-0.3-0.9
					c-0.2-0.3-0.4-0.4-0.7-0.5c-0.3-0.1-0.8-0.2-1.3-0.2H245V2022.1z"/>
				<path class="st2" d="M251.8,2019.9c0-1.2,0.3-2.1,1-2.7c0.6-0.5,1.3-0.7,2.1-0.7c0.9,0,1.7,0.3,2.2,0.9c0.6,0.6,0.9,1.4,0.9,2.5
					c0,0.9-0.1,1.5-0.4,2c-0.3,0.5-0.6,0.9-1.1,1.1c-0.5,0.3-1,0.4-1.6,0.4c-0.9,0-1.7-0.3-2.2-0.9
					C252.1,2021.9,251.8,2021,251.8,2019.9z M252.9,2019.9c0,0.8,0.2,1.5,0.6,1.9c0.4,0.4,0.8,0.6,1.4,0.6c0.6,0,1-0.2,1.4-0.6
					c0.4-0.4,0.6-1.1,0.6-1.9c0-0.8-0.2-1.4-0.6-1.9c-0.4-0.4-0.8-0.6-1.4-0.6c-0.6,0-1,0.2-1.4,0.6
					C253.1,2018.4,252.9,2019,252.9,2019.9z"/>
				<path class="st2" d="M259.3,2023.2v-6.6h1v0.9c0.5-0.7,1.2-1.1,2.1-1.1c0.4,0,0.8,0.1,1.1,0.2c0.3,0.1,0.6,0.3,0.8,0.6
					c0.2,0.2,0.3,0.5,0.3,0.8c0,0.2,0.1,0.6,0.1,1.1v4.1h-1.1v-4c0-0.5,0-0.8-0.1-1s-0.2-0.4-0.5-0.5c-0.2-0.1-0.5-0.2-0.8-0.2
					c-0.5,0-0.9,0.2-1.2,0.5c-0.3,0.3-0.5,0.9-0.5,1.7v3.6H259.3z"/>
				<path class="st2" d="M266.5,2023.2v-9.1h3.4c0.6,0,1.1,0,1.4,0.1c0.4,0.1,0.8,0.2,1.1,0.4s0.5,0.5,0.7,0.9s0.3,0.8,0.3,1.2
					c0,0.8-0.2,1.4-0.7,2s-1.4,0.8-2.7,0.8h-2.3v3.7H266.5z M267.7,2018.4h2.4c0.8,0,1.3-0.1,1.7-0.4c0.3-0.3,0.5-0.7,0.5-1.2
					c0-0.4-0.1-0.7-0.3-1c-0.2-0.3-0.4-0.5-0.8-0.5c-0.2-0.1-0.6-0.1-1.1-0.1h-2.3V2018.4z"/>
				<path class="st2" d="M274.9,2023.2v-6.6h1v1c0.3-0.5,0.5-0.8,0.7-0.9c0.2-0.1,0.5-0.2,0.7-0.2c0.4,0,0.8,0.1,1.2,0.4l-0.4,1
					c-0.3-0.2-0.5-0.2-0.8-0.2c-0.2,0-0.5,0.1-0.7,0.2s-0.3,0.4-0.4,0.6c-0.1,0.4-0.2,0.8-0.2,1.3v3.5H274.9z"/>
				<path class="st2" d="M278.7,2019.9c0-1.2,0.3-2.1,1-2.7c0.6-0.5,1.3-0.7,2.1-0.7c0.9,0,1.7,0.3,2.2,0.9c0.6,0.6,0.9,1.4,0.9,2.5
					c0,0.9-0.1,1.5-0.4,2c-0.3,0.5-0.6,0.9-1.1,1.1c-0.5,0.3-1,0.4-1.6,0.4c-0.9,0-1.7-0.3-2.2-0.9
					C279,2021.9,278.7,2021,278.7,2019.9z M279.9,2019.9c0,0.8,0.2,1.5,0.6,1.9c0.4,0.4,0.8,0.6,1.4,0.6c0.6,0,1-0.2,1.4-0.6
					c0.4-0.4,0.6-1.1,0.6-1.9c0-0.8-0.2-1.4-0.6-1.9c-0.4-0.4-0.8-0.6-1.4-0.6c-0.6,0-1,0.2-1.4,0.6
					C280.1,2018.4,279.9,2019,279.9,2019.9z"/>
				<path class="st2" d="M286.5,2023.2v-5.7h-1v-0.9h1v-0.7c0-0.4,0-0.8,0.1-1c0.1-0.3,0.3-0.5,0.6-0.7c0.3-0.2,0.7-0.3,1.1-0.3
					c0.3,0,0.7,0,1,0.1l-0.2,1c-0.2,0-0.5-0.1-0.7-0.1c-0.3,0-0.6,0.1-0.7,0.2s-0.2,0.4-0.2,0.8v0.6h1.3v0.9h-1.3v5.7H286.5z"/>
				<path class="st2" d="M289.8,2015.3v-1.3h1.1v1.3H289.8z M289.8,2023.2v-6.6h1.1v6.6H289.8z"/>
				<path class="st2" d="M295.1,2022.2l0.2,1c-0.3,0.1-0.6,0.1-0.8,0.1c-0.4,0-0.7-0.1-0.9-0.2c-0.2-0.1-0.4-0.3-0.5-0.5
					s-0.1-0.7-0.1-1.3v-3.8H292v-0.9h0.8v-1.6l1.1-0.7v2.3h1.1v0.9H294v3.9c0,0.3,0,0.5,0.1,0.6c0,0.1,0.1,0.2,0.2,0.2
					c0.1,0.1,0.2,0.1,0.4,0.1C294.7,2022.2,294.9,2022.2,295.1,2022.2z"/>
			</g>
			<g class="st1">
				<path class="st2" d="M208.5,2045.1l-2.4-9.1h1.2l1.4,6c0.1,0.6,0.3,1.3,0.4,1.9c0.2-1,0.4-1.5,0.4-1.7l1.7-6.2h1.5l1.3,4.6
					c0.3,1.1,0.6,2.2,0.7,3.2c0.1-0.6,0.3-1.2,0.5-2l1.4-5.9h1.2l-2.5,9.1h-1.2l-1.9-7c-0.2-0.6-0.3-0.9-0.3-1.1
					c-0.1,0.4-0.2,0.8-0.3,1.1l-1.9,7H208.5z"/>
				<path class="st2" d="M218.2,2041.8c0-1.2,0.3-2.1,1-2.7c0.6-0.5,1.3-0.7,2.1-0.7c0.9,0,1.7,0.3,2.2,0.9c0.6,0.6,0.9,1.4,0.9,2.5
					c0,0.9-0.1,1.5-0.4,2c-0.3,0.5-0.6,0.9-1.1,1.1c-0.5,0.3-1,0.4-1.6,0.4c-0.9,0-1.7-0.3-2.2-0.9
					C218.5,2043.7,218.2,2042.9,218.2,2041.8z M219.3,2041.8c0,0.8,0.2,1.5,0.6,1.9c0.4,0.4,0.8,0.6,1.4,0.6c0.6,0,1-0.2,1.4-0.6
					c0.4-0.4,0.6-1.1,0.6-1.9c0-0.8-0.2-1.4-0.6-1.9c-0.4-0.4-0.8-0.6-1.4-0.6c-0.6,0-1,0.2-1.4,0.6
					C219.5,2040.3,219.3,2040.9,219.3,2041.8z"/>
				<path class="st2" d="M225.7,2045.1v-6.6h1v1c0.3-0.5,0.5-0.8,0.7-0.9c0.2-0.1,0.5-0.2,0.7-0.2c0.4,0,0.8,0.1,1.2,0.4l-0.4,1
					c-0.3-0.2-0.5-0.2-0.8-0.2c-0.2,0-0.5,0.1-0.7,0.2s-0.3,0.4-0.4,0.6c-0.1,0.4-0.2,0.8-0.2,1.3v3.5H225.7z"/>
				<path class="st2" d="M229.9,2045.1v-9.1h1.1v5.2l2.7-2.7h1.5l-2.5,2.5l2.8,4.2H234l-2.2-3.4l-0.8,0.8v2.6H229.9z"/>
				<path class="st2" d="M241.6,2045.1l-2.4-9.1h1.2l1.4,6c0.1,0.6,0.3,1.3,0.4,1.9c0.2-1,0.4-1.5,0.4-1.7l1.7-6.2h1.5l1.3,4.6
					c0.3,1.1,0.6,2.2,0.7,3.2c0.1-0.6,0.3-1.2,0.5-2l1.4-5.9h1.2l-2.5,9.1h-1.2l-1.9-7c-0.2-0.6-0.3-0.9-0.3-1.1
					c-0.1,0.4-0.2,0.8-0.3,1.1l-1.9,7H241.6z"/>
				<path class="st2" d="M251.9,2037.2v-1.3h1.1v1.3H251.9z M251.9,2045.1v-6.6h1.1v6.6H251.9z"/>
				<path class="st2" d="M257.2,2044.1l0.2,1c-0.3,0.1-0.6,0.1-0.8,0.1c-0.4,0-0.7-0.1-0.9-0.2c-0.2-0.1-0.4-0.3-0.5-0.5
					s-0.1-0.7-0.1-1.3v-3.8h-0.8v-0.9h0.8v-1.6l1.1-0.7v2.3h1.1v0.9h-1.1v3.9c0,0.3,0,0.5,0.1,0.6c0,0.1,0.1,0.2,0.2,0.2
					c0.1,0.1,0.2,0.1,0.4,0.1C256.8,2044.1,257,2044.1,257.2,2044.1z"/>
				<path class="st2" d="M258.3,2045.1v-9.1h1.1v3.3c0.5-0.6,1.2-0.9,2-0.9c0.5,0,0.9,0.1,1.3,0.3c0.4,0.2,0.6,0.5,0.8,0.8
					c0.2,0.3,0.2,0.8,0.2,1.5v4.2h-1.1v-4.2c0-0.6-0.1-1-0.4-1.2c-0.2-0.3-0.6-0.4-1-0.4c-0.3,0-0.6,0.1-0.9,0.3
					c-0.3,0.2-0.5,0.4-0.6,0.7s-0.2,0.7-0.2,1.2v3.6H258.3z"/>
				<path class="st2" d="M275.1,2035.9h1.2v5.3c0,0.9-0.1,1.6-0.3,2.2c-0.2,0.5-0.6,1-1.1,1.3c-0.5,0.3-1.3,0.5-2.1,0.5
					c-0.9,0-1.6-0.1-2.1-0.4s-0.9-0.7-1.2-1.3s-0.3-1.3-0.3-2.3v-5.3h1.2v5.3c0,0.8,0.1,1.4,0.2,1.8c0.1,0.4,0.4,0.7,0.8,0.9
					c0.4,0.2,0.8,0.3,1.3,0.3c0.9,0,1.5-0.2,1.9-0.6c0.4-0.4,0.6-1.2,0.6-2.3V2035.9z"/>
				<path class="st2" d="M277.9,2042.1l1.1-0.1c0.1,0.5,0.2,0.8,0.4,1.1c0.2,0.3,0.5,0.5,0.9,0.7s0.9,0.3,1.4,0.3
					c0.5,0,0.9-0.1,1.2-0.2c0.4-0.1,0.6-0.3,0.8-0.6c0.2-0.2,0.3-0.5,0.3-0.8c0-0.3-0.1-0.5-0.2-0.8c-0.2-0.2-0.4-0.4-0.8-0.5
					c-0.2-0.1-0.8-0.2-1.6-0.4c-0.8-0.2-1.4-0.4-1.8-0.6c-0.4-0.2-0.8-0.5-1-0.9c-0.2-0.3-0.3-0.7-0.3-1.1c0-0.5,0.1-0.9,0.4-1.3
					c0.3-0.4,0.6-0.7,1.1-0.9c0.5-0.2,1.1-0.3,1.7-0.3c0.7,0,1.3,0.1,1.8,0.3c0.5,0.2,0.9,0.5,1.2,1c0.3,0.4,0.4,0.9,0.4,1.4
					l-1.2,0.1c-0.1-0.6-0.3-1-0.6-1.3s-0.9-0.4-1.6-0.4c-0.7,0-1.3,0.1-1.6,0.4c-0.3,0.3-0.5,0.6-0.5,1c0,0.3,0.1,0.6,0.4,0.8
					c0.2,0.2,0.8,0.4,1.8,0.7c1,0.2,1.7,0.4,2,0.6c0.5,0.2,0.9,0.6,1.2,0.9s0.4,0.8,0.4,1.3c0,0.5-0.1,0.9-0.4,1.4s-0.7,0.8-1.2,1
					c-0.5,0.2-1.1,0.4-1.8,0.4c-0.8,0-1.5-0.1-2.1-0.4c-0.6-0.2-1-0.6-1.3-1.1C278.1,2043.3,277.9,2042.7,277.9,2042.1z"/>
			</g>
			<g class="st1">
				<path class="st2" d="M206.9,2067v-9.1h3.4c0.6,0,1.1,0,1.4,0.1c0.4,0.1,0.8,0.2,1.1,0.4s0.5,0.5,0.7,0.9s0.3,0.8,0.3,1.2
					c0,0.8-0.2,1.4-0.7,2s-1.4,0.8-2.7,0.8h-2.3v3.7H206.9z M208.1,2062.2h2.4c0.8,0,1.3-0.1,1.7-0.4c0.3-0.3,0.5-0.7,0.5-1.2
					c0-0.4-0.1-0.7-0.3-1c-0.2-0.3-0.4-0.5-0.8-0.5c-0.2-0.1-0.6-0.1-1.1-0.1h-2.3V2062.2z"/>
				<path class="st2" d="M215.3,2067v-6.6h1v1c0.3-0.5,0.5-0.8,0.7-0.9c0.2-0.1,0.5-0.2,0.7-0.2c0.4,0,0.8,0.1,1.2,0.4l-0.4,1
					c-0.3-0.2-0.5-0.2-0.8-0.2c-0.2,0-0.5,0.1-0.7,0.2s-0.3,0.4-0.4,0.6c-0.1,0.4-0.2,0.8-0.2,1.3v3.5H215.3z"/>
				<path class="st2" d="M219.5,2059.1v-1.3h1.1v1.3H219.5z M219.5,2067v-6.6h1.1v6.6H219.5z"/>
				<path class="st2" d="M224.2,2067l-2.5-6.6h1.2l1.4,4c0.2,0.4,0.3,0.9,0.4,1.3c0.1-0.3,0.2-0.8,0.4-1.3l1.5-4h1.2l-2.5,6.6H224.2
					z"/>
				<path class="st2" d="M233.1,2066.1c-0.4,0.4-0.8,0.6-1.2,0.7s-0.8,0.2-1.2,0.2c-0.7,0-1.3-0.2-1.7-0.5c-0.4-0.4-0.6-0.8-0.6-1.4
					c0-0.3,0.1-0.6,0.2-0.9c0.1-0.3,0.3-0.5,0.6-0.6s0.5-0.3,0.8-0.4c0.2-0.1,0.6-0.1,1-0.2c0.9-0.1,1.6-0.2,2-0.4
					c0-0.2,0-0.3,0-0.3c0-0.5-0.1-0.8-0.3-1c-0.3-0.3-0.7-0.4-1.3-0.4c-0.5,0-0.9,0.1-1.2,0.3c-0.3,0.2-0.4,0.5-0.6,1l-1.1-0.1
					c0.1-0.5,0.3-0.8,0.5-1.1s0.6-0.5,1-0.7c0.4-0.2,0.9-0.2,1.5-0.2c0.6,0,1,0.1,1.4,0.2s0.6,0.3,0.8,0.5c0.2,0.2,0.3,0.5,0.3,0.8
					c0,0.2,0.1,0.5,0.1,1v1.5c0,1,0,1.7,0.1,2s0.1,0.5,0.3,0.8h-1.2C233.2,2066.7,233.1,2066.5,233.1,2066.1z M233,2063.6
					c-0.4,0.2-1,0.3-1.8,0.4c-0.5,0.1-0.8,0.1-1,0.2s-0.3,0.2-0.4,0.4c-0.1,0.2-0.2,0.3-0.2,0.5c0,0.3,0.1,0.5,0.3,0.7
					s0.6,0.3,1,0.3c0.4,0,0.8-0.1,1.2-0.3c0.3-0.2,0.6-0.4,0.7-0.8c0.1-0.3,0.2-0.6,0.2-1.1V2063.6z"/>
				<path class="st2" d="M240.2,2064.5l1.1,0.1c-0.1,0.8-0.4,1.4-0.9,1.8c-0.5,0.4-1.1,0.6-1.8,0.6c-0.9,0-1.6-0.3-2.2-0.9
					c-0.6-0.6-0.8-1.4-0.8-2.5c0-0.7,0.1-1.3,0.4-1.9s0.6-0.9,1.1-1.2c0.5-0.3,1-0.4,1.6-0.4c0.7,0,1.3,0.2,1.8,0.5s0.8,0.9,0.9,1.5
					l-1.1,0.2c-0.1-0.4-0.3-0.8-0.6-1c-0.3-0.2-0.6-0.3-1-0.3c-0.6,0-1,0.2-1.4,0.6c-0.4,0.4-0.5,1-0.5,1.9c0,0.9,0.2,1.5,0.5,1.9
					c0.3,0.4,0.8,0.6,1.3,0.6c0.4,0,0.8-0.1,1.1-0.4C239.9,2065.5,240.1,2065.1,240.2,2064.5z"/>
				<path class="st2" d="M242.2,2069.5l-0.1-1.1c0.2,0.1,0.5,0.1,0.6,0.1c0.2,0,0.4,0,0.6-0.1c0.1-0.1,0.3-0.2,0.4-0.3
					c0.1-0.1,0.2-0.4,0.3-0.8c0-0.1,0.1-0.2,0.1-0.3l-2.5-6.6h1.2l1.4,3.8c0.2,0.5,0.3,1,0.5,1.5c0.1-0.5,0.3-1,0.5-1.5l1.4-3.9h1.1
					l-2.5,6.7c-0.3,0.7-0.5,1.2-0.6,1.5c-0.2,0.4-0.4,0.6-0.7,0.8s-0.6,0.3-0.9,0.3C242.7,2069.6,242.5,2069.6,242.2,2069.5z"/>
				<path class="st2" d="M252.3,2067v-9.1h3.4c0.6,0,1.1,0,1.4,0.1c0.4,0.1,0.8,0.2,1.1,0.4s0.5,0.5,0.7,0.9s0.3,0.8,0.3,1.2
					c0,0.8-0.2,1.4-0.7,2s-1.4,0.8-2.7,0.8h-2.3v3.7H252.3z M253.5,2062.2h2.4c0.8,0,1.3-0.1,1.7-0.4c0.3-0.3,0.5-0.7,0.5-1.2
					c0-0.4-0.1-0.7-0.3-1c-0.2-0.3-0.4-0.5-0.8-0.5c-0.2-0.1-0.6-0.1-1.1-0.1h-2.3V2062.2z"/>
				<path class="st2" d="M260.3,2063.6c0-1.2,0.3-2.1,1-2.7c0.6-0.5,1.3-0.7,2.1-0.7c0.9,0,1.7,0.3,2.2,0.9c0.6,0.6,0.9,1.4,0.9,2.5
					c0,0.9-0.1,1.5-0.4,2c-0.3,0.5-0.6,0.9-1.1,1.1c-0.5,0.3-1,0.4-1.6,0.4c-0.9,0-1.7-0.3-2.2-0.9
					C260.5,2065.6,260.3,2064.8,260.3,2063.6z M261.4,2063.6c0,0.8,0.2,1.5,0.6,1.9c0.4,0.4,0.8,0.6,1.4,0.6c0.6,0,1-0.2,1.4-0.6
					c0.4-0.4,0.6-1.1,0.6-1.9c0-0.8-0.2-1.4-0.6-1.9c-0.4-0.4-0.8-0.6-1.4-0.6c-0.6,0-1,0.2-1.4,0.6
					C261.6,2062.2,261.4,2062.8,261.4,2063.6z"/>
				<path class="st2" d="M267.8,2067v-9.1h1.1v9.1H267.8z"/>
				<path class="st2" d="M270.6,2059.1v-1.3h1.1v1.3H270.6z M270.6,2067v-6.6h1.1v6.6H270.6z"/>
				<path class="st2" d="M277.8,2064.5l1.1,0.1c-0.1,0.8-0.4,1.4-0.9,1.8c-0.5,0.4-1.1,0.6-1.8,0.6c-0.9,0-1.6-0.3-2.2-0.9
					c-0.6-0.6-0.8-1.4-0.8-2.5c0-0.7,0.1-1.3,0.4-1.9s0.6-0.9,1.1-1.2c0.5-0.3,1-0.4,1.6-0.4c0.7,0,1.3,0.2,1.8,0.5s0.8,0.9,0.9,1.5
					l-1.1,0.2c-0.1-0.4-0.3-0.8-0.6-1c-0.3-0.2-0.6-0.3-1-0.3c-0.6,0-1,0.2-1.4,0.6c-0.4,0.4-0.5,1-0.5,1.9c0,0.9,0.2,1.5,0.5,1.9
					c0.3,0.4,0.8,0.6,1.3,0.6c0.4,0,0.8-0.1,1.1-0.4C277.5,2065.5,277.7,2065.1,277.8,2064.5z"/>
				<path class="st2" d="M279.8,2069.5l-0.1-1.1c0.2,0.1,0.5,0.1,0.6,0.1c0.2,0,0.4,0,0.6-0.1c0.1-0.1,0.3-0.2,0.4-0.3
					c0.1-0.1,0.2-0.4,0.3-0.8c0-0.1,0.1-0.2,0.1-0.3l-2.5-6.6h1.2l1.4,3.8c0.2,0.5,0.3,1,0.5,1.5c0.1-0.5,0.3-1,0.5-1.5l1.4-3.9h1.1
					l-2.5,6.7c-0.3,0.7-0.5,1.2-0.6,1.5c-0.2,0.4-0.4,0.6-0.7,0.8s-0.6,0.3-0.9,0.3C280.3,2069.6,280,2069.6,279.8,2069.5z"/>
			</g>
		</g>
		<g id="Group_9_1_" transform="translate(-356 30.591)">
			<g id="Group_8_1_" transform="translate(785 -32)">
				<path id="Path_1_1_" class="st2" d="M693.6,2041.9v-9.9h3.4l0.5-3.8h-3.8v-2.4c0-1.1,0.4-1.9,1.9-1.9h2v-3.5
					c-0.5,0-1.7-0.1-3-0.1c-2.9,0-4.9,1.8-4.9,5v2.9h-3.4v3.8h3.4v9.9H693.6z"/>
				<path id="Path_2_1_" class="st2" d="M638.9,2039.7c6.9,0.1,12.6-5.5,12.6-12.4c0-0.1,0-0.2,0-0.2v-0.6c0.8-0.6,1.6-1.4,2.2-2.3
					c-0.8,0.4-1.7,0.6-2.5,0.7c0.9-0.6,1.6-1.4,1.9-2.4c-0.9,0.5-1.8,0.8-2.8,1.1c-0.8-0.9-2-1.5-3.2-1.4c-2.4,0-4.4,2-4.5,4.4
					c0,0.3,0,0.7,0.1,1c-3.6-0.2-6.9-1.9-9.1-4.7c-0.4,0.7-0.6,1.5-0.6,2.3c0,1.5,0.7,2.8,1.9,3.7c-0.7,0-1.4-0.2-2-0.6l0,0
					c0,2.1,1.5,3.9,3.6,4.3c-0.4,0.1-0.8,0.1-1.2,0.1c-0.3,0-0.6,0-0.8-0.1c0.6,1.8,2.3,3.1,4.2,3.1c-1.6,1.2-3.5,1.9-5.5,1.9
					c-0.4,0-0.7,0-1.1-0.1C634.1,2039,636.5,2039.8,638.9,2039.7"/>
				<path id="Path_3_1_" class="st2" d="M588.7,2022.2c1.4-0.1,2.9,0,4.3,0.1c0.7,0,1.4,0.1,2,0.4c0.9,0.4,1.6,1.1,2,2
					c0.2,0.7,0.4,1.3,0.4,2c0,1.1,0.1,1.4,0.1,4.3c0.1,1.4,0,2.9-0.1,4.3c0,0.7-0.1,1.4-0.4,2c-0.4,0.9-1.1,1.6-2,2
					c-0.7,0.2-1.3,0.4-2,0.4c-1.1,0-1.4,0.1-4.3,0.1c-1.4,0.1-2.9,0-4.3-0.1c-0.7,0-1.4-0.1-2-0.4c-0.9-0.4-1.6-1.1-2-2
					c-0.2-0.7-0.4-1.3-0.4-2c0-1.1-0.1-1.4-0.1-4.3c-0.1-1.4,0-2.9,0.1-4.3c0-0.7,0.1-1.4,0.4-2c0.2-0.4,0.5-0.9,0.8-1.2
					c0.3-0.4,0.7-0.7,1.2-0.8c0.7-0.2,1.3-0.4,2-0.4C585.8,2022.2,587.2,2022.1,588.7,2022.2 M588.7,2020.3c-1.5-0.1-3,0-4.4,0.1
					c-0.9,0-1.8,0.2-2.6,0.5c-0.7,0.2-1.4,0.7-1.9,1.2c-0.6,0.5-1,1.2-1.2,1.9c-0.4,0.8-0.5,1.7-0.5,2.6c-0.1,1.5-0.2,3-0.1,4.4
					c-0.1,1.5,0,3,0.1,4.4c0,0.9,0.2,1.8,0.5,2.6c0.2,0.7,0.7,1.4,1.2,1.9c0.5,0.6,1.2,1,1.9,1.2c0.8,0.3,1.7,0.5,2.6,0.5
					c1.5,0.1,3,0.2,4.4,0.1c1.5,0.1,3,0,4.4-0.1c0.9,0,1.8-0.2,2.6-0.5c1.5-0.5,2.6-1.7,3.1-3.1c0.3-0.8,0.5-1.7,0.5-2.6
					c0-1.2,0.1-1.6,0.1-4.4c0.1-1.5,0-3-0.1-4.4c0-0.9-0.2-1.8-0.5-2.6c-0.2-0.7-0.7-1.4-1.2-1.9c-0.5-0.6-1.2-1-1.9-1.2
					c-0.8-0.3-1.7-0.5-2.6-0.5C591.6,2020.3,590.2,2020.2,588.7,2020.3 M588.7,2025.6c-3-0.1-5.5,2.3-5.5,5.3c0,0.1,0,0.1,0,0.2
					c0,3.1,2.5,5.5,5.5,5.5s5.5-2.5,5.5-5.5C594.2,2028,591.7,2025.6,588.7,2025.6 M588.7,2034.7c-2,0-3.6-1.5-3.6-3.5v-0.1
					c0-2,1.5-3.6,3.5-3.6h0.1c2,0,3.6,1.5,3.6,3.5v0.1C592.3,2033.1,590.8,2034.7,588.7,2034.7L588.7,2034.7 M594.5,2024
					c-0.7,0-1.3,0.6-1.3,1.3s0.6,1.3,1.3,1.3s1.3-0.6,1.3-1.3S595.2,2024,594.5,2024"/>
			</g>
			<g class="st1">
				<path class="st2" d="M1385.5,2029.2c0.7,0,1.3,0.2,2,0.5c0.6,0.3,1.1,0.8,1.5,1.5c0.4,0.6,0.5,1.3,0.5,2c0,0.7-0.2,1.4-0.5,2
					c-0.4,0.6-0.9,1.1-1.5,1.5c-0.6,0.4-1.3,0.5-2,0.5s-1.4-0.2-2-0.5c-0.6-0.4-1.1-0.9-1.5-1.5c-0.4-0.6-0.5-1.3-0.5-2
					c0-0.7,0.2-1.4,0.5-2s0.9-1.1,1.5-1.5C1384.2,2029.3,1384.9,2029.2,1385.5,2029.2z M1385.5,2029.8c-0.6,0-1.1,0.1-1.7,0.4
					s-1,0.7-1.3,1.2c-0.3,0.5-0.5,1.1-0.5,1.7c0,0.6,0.1,1.1,0.4,1.7c0.3,0.5,0.7,0.9,1.2,1.2c0.5,0.3,1.1,0.4,1.7,0.4
					c0.6,0,1.1-0.1,1.7-0.4c0.5-0.3,0.9-0.7,1.2-1.2s0.4-1.1,0.4-1.7c0-0.6-0.2-1.1-0.5-1.7c-0.3-0.5-0.7-1-1.3-1.2
					C1386.7,2030,1386.1,2029.8,1385.5,2029.8z M1386.8,2033.9l0.7,0.2c-0.1,0.4-0.3,0.8-0.7,1.1c-0.3,0.3-0.8,0.4-1.3,0.4
					c-0.6,0-1.1-0.2-1.5-0.6s-0.6-1-0.6-1.7c0-0.5,0.1-0.9,0.3-1.2c0.2-0.3,0.4-0.6,0.8-0.8c0.3-0.2,0.7-0.3,1.1-0.3
					c0.5,0,0.9,0.1,1.2,0.3c0.3,0.2,0.5,0.5,0.6,0.9l-0.6,0.2c-0.1-0.3-0.3-0.5-0.5-0.6c-0.2-0.1-0.5-0.2-0.7-0.2
					c-0.4,0-0.7,0.1-1,0.4c-0.3,0.3-0.4,0.7-0.4,1.3s0.1,1,0.4,1.2c0.3,0.3,0.6,0.4,1,0.4c0.3,0,0.6-0.1,0.8-0.3
					C1386.6,2034.4,1386.8,2034.2,1386.8,2033.9z"/>
				<path class="st2" d="M1393.4,2037.1v-7.8h2.9c0.6,0,1.1,0.1,1.4,0.2c0.4,0.2,0.6,0.4,0.8,0.7c0.2,0.3,0.3,0.7,0.3,1
					c0,0.3-0.1,0.7-0.3,0.9c-0.2,0.3-0.5,0.5-0.8,0.7c0.5,0.1,0.8,0.4,1.1,0.7c0.3,0.3,0.4,0.7,0.4,1.2c0,0.4-0.1,0.7-0.2,1
					c-0.2,0.3-0.3,0.6-0.6,0.7c-0.2,0.2-0.5,0.3-0.9,0.4s-0.8,0.1-1.3,0.1H1393.4z M1394.4,2032.6h1.7c0.5,0,0.8,0,1-0.1
					c0.3-0.1,0.5-0.2,0.6-0.4s0.2-0.4,0.2-0.7c0-0.3-0.1-0.5-0.2-0.7c-0.1-0.2-0.3-0.3-0.5-0.4c-0.2-0.1-0.6-0.1-1.2-0.1h-1.6
					V2032.6z M1394.4,2036.2h2c0.3,0,0.6,0,0.7,0c0.2,0,0.4-0.1,0.6-0.2c0.2-0.1,0.3-0.2,0.4-0.4c0.1-0.2,0.2-0.4,0.2-0.7
					c0-0.3-0.1-0.5-0.2-0.8c-0.1-0.2-0.4-0.4-0.6-0.5c-0.3-0.1-0.6-0.1-1.1-0.1h-1.8V2036.2z"/>
				<path class="st2" d="M1400.3,2034.3c0-1.1,0.3-1.8,0.9-2.3c0.5-0.4,1.1-0.6,1.8-0.6c0.8,0,1.4,0.3,1.9,0.8
					c0.5,0.5,0.7,1.2,0.7,2.1c0,0.7-0.1,1.3-0.3,1.7c-0.2,0.4-0.5,0.7-1,1c-0.4,0.2-0.9,0.3-1.4,0.3c-0.8,0-1.4-0.3-1.9-0.8
					C1400.5,2036,1400.3,2035.3,1400.3,2034.3z M1401.2,2034.3c0,0.7,0.2,1.3,0.5,1.6c0.3,0.4,0.7,0.5,1.2,0.5
					c0.5,0,0.9-0.2,1.2-0.5c0.3-0.4,0.5-0.9,0.5-1.7c0-0.7-0.2-1.2-0.5-1.6c-0.3-0.4-0.7-0.5-1.2-0.5c-0.5,0-0.9,0.2-1.2,0.5
					C1401.4,2033,1401.2,2033.6,1401.2,2034.3z"/>
				<path class="st2" d="M1406.7,2037.1v-5.7h0.9v0.8c0.4-0.6,1-0.9,1.8-0.9c0.3,0,0.7,0.1,0.9,0.2c0.3,0.1,0.5,0.3,0.6,0.5
					c0.1,0.2,0.2,0.4,0.3,0.7c0,0.2,0.1,0.5,0.1,0.9v3.5h-1v-3.5c0-0.4,0-0.7-0.1-0.9s-0.2-0.3-0.4-0.5s-0.4-0.2-0.7-0.2
					c-0.4,0-0.8,0.1-1.1,0.4c-0.3,0.3-0.4,0.8-0.4,1.5v3.1H1406.7z"/>
				<path class="st2" d="M1412.9,2037.1v-7.8h3c0.5,0,0.9,0,1.2,0.1c0.4,0.1,0.7,0.2,1,0.4s0.5,0.4,0.6,0.8s0.2,0.7,0.2,1.1
					c0,0.7-0.2,1.2-0.6,1.7s-1.2,0.7-2.3,0.7h-2v3.2H1412.9z M1413.9,2033h2c0.7,0,1.1-0.1,1.4-0.4s0.4-0.6,0.4-1.1
					c0-0.3-0.1-0.6-0.2-0.8s-0.4-0.4-0.7-0.5c-0.2,0-0.5-0.1-1-0.1h-2V2033z"/>
				<path class="st2" d="M1420.1,2037.1v-5.7h0.9v0.9c0.2-0.4,0.4-0.7,0.6-0.8c0.2-0.1,0.4-0.2,0.6-0.2c0.3,0,0.7,0.1,1,0.3
					l-0.3,0.9c-0.2-0.1-0.5-0.2-0.7-0.2c-0.2,0-0.4,0.1-0.6,0.2c-0.2,0.1-0.3,0.3-0.4,0.5c-0.1,0.3-0.2,0.7-0.2,1.1v3H1420.1z"/>
				<path class="st2" d="M1423.4,2034.3c0-1.1,0.3-1.8,0.9-2.3c0.5-0.4,1.1-0.6,1.8-0.6c0.8,0,1.4,0.3,1.9,0.8
					c0.5,0.5,0.7,1.2,0.7,2.1c0,0.7-0.1,1.3-0.3,1.7c-0.2,0.4-0.5,0.7-1,1s-0.9,0.3-1.4,0.3c-0.8,0-1.4-0.3-1.9-0.8
					C1423.6,2036,1423.4,2035.3,1423.4,2034.3z M1424.4,2034.3c0,0.7,0.2,1.3,0.5,1.6c0.3,0.4,0.7,0.5,1.2,0.5
					c0.5,0,0.9-0.2,1.2-0.5c0.3-0.4,0.5-0.9,0.5-1.7c0-0.7-0.2-1.2-0.5-1.6s-0.7-0.5-1.2-0.5c-0.5,0-0.9,0.2-1.2,0.5
					C1424.5,2033,1424.4,2033.6,1424.4,2034.3z"/>
				<path class="st2" d="M1430,2037.1v-4.9h-0.8v-0.7h0.8v-0.6c0-0.4,0-0.7,0.1-0.8c0.1-0.2,0.3-0.5,0.5-0.6s0.6-0.2,1-0.2
					c0.3,0,0.6,0,0.9,0.1l-0.1,0.8c-0.2,0-0.4-0.1-0.6-0.1c-0.3,0-0.5,0.1-0.6,0.2c-0.1,0.1-0.2,0.4-0.2,0.7v0.5h1.1v0.7h-1.1v4.9
					H1430z"/>
				<path class="st2" d="M1432.9,2030.4v-1.1h1v1.1H1432.9z M1432.9,2037.1v-5.7h1v5.7H1432.9z"/>
				<path class="st2" d="M1437.4,2036.3l0.1,0.8c-0.3,0.1-0.5,0.1-0.7,0.1c-0.3,0-0.6-0.1-0.8-0.2s-0.3-0.3-0.4-0.4
					s-0.1-0.6-0.1-1.1v-3.3h-0.7v-0.7h0.7v-1.4l1-0.6v2h1v0.7h-1v3.3c0,0.3,0,0.5,0.1,0.5s0.1,0.1,0.2,0.2c0.1,0,0.2,0.1,0.3,0.1
					C1437.1,2036.3,1437.2,2036.3,1437.4,2036.3z"/>
				<path class="st2" d="M1446.1,2036.2v0.9h-5.2c0-0.2,0-0.5,0.1-0.7c0.1-0.4,0.3-0.7,0.6-1c0.3-0.3,0.7-0.7,1.3-1.2
					c0.9-0.7,1.4-1.3,1.7-1.7c0.3-0.4,0.4-0.8,0.4-1.2c0-0.4-0.1-0.7-0.4-1s-0.6-0.4-1.1-0.4c-0.5,0-0.8,0.1-1.1,0.4
					c-0.3,0.3-0.4,0.7-0.4,1.2l-1-0.1c0.1-0.7,0.3-1.3,0.8-1.7c0.4-0.4,1-0.6,1.8-0.6c0.8,0,1.3,0.2,1.8,0.6
					c0.4,0.4,0.7,0.9,0.7,1.5c0,0.3-0.1,0.6-0.2,0.9c-0.1,0.3-0.3,0.6-0.6,1c-0.3,0.3-0.8,0.8-1.5,1.4c-0.6,0.5-0.9,0.8-1.1,1
					s-0.3,0.3-0.4,0.5H1446.1z"/>
				<path class="st2" d="M1447.2,2033.3c0-0.9,0.1-1.7,0.3-2.2c0.2-0.6,0.5-1,0.8-1.3c0.4-0.3,0.8-0.5,1.4-0.5
					c0.4,0,0.8,0.1,1.1,0.3c0.3,0.2,0.6,0.4,0.8,0.7c0.2,0.3,0.4,0.7,0.5,1.2c0.1,0.5,0.2,1.1,0.2,1.9c0,0.9-0.1,1.7-0.3,2.2
					s-0.5,1-0.8,1.3c-0.4,0.3-0.9,0.5-1.4,0.5c-0.8,0-1.3-0.3-1.8-0.8C1447.4,2035.8,1447.2,2034.7,1447.2,2033.3z M1448.2,2033.3
					c0,1.3,0.2,2.1,0.5,2.6c0.3,0.4,0.7,0.6,1.1,0.6s0.8-0.2,1.1-0.6c0.3-0.4,0.5-1.3,0.5-2.6c0-1.3-0.2-2.1-0.5-2.6
					c-0.3-0.4-0.7-0.6-1.1-0.6c-0.4,0-0.8,0.2-1.1,0.6C1448.3,2031.1,1448.2,2032,1448.2,2033.3z"/>
				<path class="st2" d="M1456.9,2037.1h-1v-6.1c-0.2,0.2-0.5,0.4-0.9,0.7c-0.4,0.2-0.7,0.4-1,0.5v-0.9c0.5-0.3,1-0.6,1.4-0.9
					c0.4-0.4,0.7-0.7,0.9-1h0.6V2037.1z"/>
				<path class="st2" d="M1459.4,2030.3v-0.9h5.1v0.7c-0.5,0.5-1,1.2-1.5,2.1c-0.5,0.9-0.9,1.8-1.1,2.7c-0.2,0.7-0.3,1.4-0.4,2.2h-1
					c0-0.6,0.1-1.4,0.4-2.2c0.2-0.9,0.6-1.7,1-2.5c0.4-0.8,0.9-1.5,1.4-2H1459.4z"/>
			</g>
		</g>
	</g>
</g>
</svg>
