<?xml version="1.0" encoding="utf-8"?>
<!-- Generator: Adobe Illustrator 22.0.1, SVG Export Plug-In . SVG Version: 6.00 Build 0)  -->
<svg version="1.1" id="Layer_1" xmlns="http://www.w3.org/2000/svg" xmlns:xlink="http://www.w3.org/1999/xlink" x="0px" y="0px"
	 viewBox="0 0 32 32" style="enable-background:new 0 0 32 32;" xml:space="preserve">
<style type="text/css">
	.st0{fill:none;}
	.st1{fill:#E0A742;}
</style>
<rect y="0" class="st0" width="32" height="32"/>
<g id="wheelchair-access" transform="translate(547.714 717)">
	<g id="Group_154" transform="translate(18.974)">
		<path id="Path_301" class="st1" d="M-555.7-710.3c-0.1-0.3-0.2-0.7-0.2-1c0-0.3,0.1-0.7,0.2-1c0.3-0.6,0.7-1.1,1.4-1.4
			c0.3-0.1,0.7-0.2,1-0.2c0.3,0,0.7,0.1,1,0.2c0.3,0.1,0.6,0.3,0.8,0.5c0.2,0.2,0.4,0.5,0.5,0.8c0.1,0.3,0.2,0.6,0.2,1
			c0,0.7-0.3,1.3-0.7,1.8c-0.5,0.5-1.1,0.8-1.8,0.8c-0.3,0-0.7-0.1-1-0.2C-555-709.2-555.4-709.7-555.7-710.3z M-545.7-696.2
			c-0.3-0.1-0.6,0-0.8,0.1c-0.2,0.2-0.4,0.4-0.5,0.7c-0.1,0.3-0.1,0.5-0.2,0.8c-0.2,0.6-0.6,1.2-1,1.8c-0.4,0.5-0.9,1-1.5,1.4
			c-1.2,0.8-2.5,1.2-3.9,1.2c-0.9,0-1.8-0.2-2.6-0.5c-0.8-0.3-1.5-0.8-2.2-1.4c-0.6-0.6-1.1-1.3-1.5-2.1c-0.6-1.4-0.7-3-0.2-4.5
			c0.2-0.6,0.5-1.2,0.9-1.8c0.4-0.5,0.8-1,1.4-1.4c0.5-0.4,1.1-0.8,1.8-1c0.5-0.2,0.9-0.8,0.7-1.3c0,0,0-0.1,0-0.1
			c-0.1-0.3-0.3-0.5-0.6-0.6c-0.3-0.1-0.6-0.1-0.9,0c-0.8,0.3-1.6,0.8-2.4,1.3c-0.7,0.5-1.3,1.2-1.8,1.9c-0.5,0.7-0.9,1.5-1.2,2.3
			c-0.3,0.8-0.4,1.7-0.4,2.6c0,1.2,0.2,2.3,0.7,3.4c0.5,1,1.1,2,1.9,2.8c0.8,0.8,1.8,1.4,2.9,1.9c1.1,0.5,2.3,0.7,3.5,0.7
			c0.9,0,1.9-0.1,2.7-0.4c0.9-0.3,1.7-0.7,2.4-1.2c0.7-0.5,1.4-1.1,2-1.8c0.6-0.7,1-1.5,1.3-2.4c0.1-0.3,0.2-0.7,0.3-1
			c0.1-0.3,0-0.6-0.1-0.8C-545.2-696-545.5-696.2-545.7-696.2z M-538.8-692l-4.2-7.3c-0.1-0.3-0.4-0.6-0.7-0.7
			c-0.3-0.2-0.6-0.3-1-0.3h-4.7l-0.5-2.7h3.6c0.2,0,0.4,0,0.6-0.1c0.2-0.1,0.4-0.2,0.5-0.4c0.3-0.5,0.1-1.2-0.4-1.5c0,0,0,0,0,0
			c-0.1-0.1-0.3-0.1-0.5-0.1h-4.3l-0.2-1.3c0,0,0,0,0-0.1s0,0,0-0.1l0-0.1c-0.1-0.4-0.4-0.8-0.7-1c-0.4-0.3-0.8-0.4-1.2-0.4
			c-0.6,0-1.1,0.2-1.5,0.6c-0.4,0.4-0.6,0.9-0.6,1.4c0,0.1,0,0.1,0,0.2h0l1.5,7.3c0.1,0.4,0.3,0.8,0.6,1c0.3,0.3,0.7,0.4,1.2,0.4
			c0.1,0,0.2,0,0.3,0h6.2l3.6,6.3c0.1,0.2,0.3,0.4,0.5,0.6c0.2,0.1,0.5,0.2,0.8,0.2c0.4,0,0.7-0.1,0.9-0.4c0.3-0.2,0.4-0.6,0.4-0.9
			C-538.7-691.7-538.7-691.9-538.8-692L-538.8-692z"/>
	</g>
</g>
</svg>
