<?xml version="1.0" encoding="utf-8"?>
<!-- Generator: Adobe Illustrator 22.0.1, SVG Export Plug-In . SVG Version: 6.00 Build 0)  -->
<svg version="1.1" id="Layer_1" xmlns="http://www.w3.org/2000/svg" xmlns:xlink="http://www.w3.org/1999/xlink" x="0px" y="0px"
	 viewBox="0 0 32 32" style="enable-background:new 0 0 32 32;" xml:space="preserve">
<style type="text/css">
	.st0{fill:#E0A742;}
</style>
<path class="st0" d="M16.6,8.6c2,0.3,3.3,2.3,2.8,4.2c-0.6,2.1-2.9,3.2-4.9,2.2c-1.2-0.6-1.9-1.9-1.8-3.2c0.1-1.4,1-2.6,2.4-3.1
	C15.5,8.5,16,8.5,16.6,8.6z M15.4,4.6c-1.9,0.2-3.4,0.9-4.7,2.2c-0.9,0.9-1.5,1.8-1.8,3c-0.4,1.1-0.5,2.3-0.3,3.7
	c0.4,3.5,2.4,7.4,7,13.3l0.5,0.6l0.1-0.2c4.1-5.5,5.9-8.5,6.8-11.1c0.6-1.9,0.8-3.7,0.6-5.3c-0.6-3.7-3.8-6.3-7.6-6.3
	C15.7,4.6,15.4,4.6,15.4,4.6z"/>
</svg>
