<?xml version="1.0" encoding="utf-8"?>
<!-- Generator: Adobe Illustrator 22.0.1, SVG Export Plug-In . SVG Version: 6.00 Build 0)  -->
<svg version="1.1" id="phone-calling" xmlns="http://www.w3.org/2000/svg" xmlns:xlink="http://www.w3.org/1999/xlink" x="0px"
	 y="0px" viewBox="0 0 32 32" style="enable-background:new 0 0 32 32;" xml:space="preserve">
<style type="text/css">
	.st0{fill:none;}
	.st1{fill:#E9AD3F;}
</style>
<rect y="0" class="st0" width="32" height="32"/>
<g id="_x23_000000ff_33_">
	<path class="st1" d="M29.2,21.2l-0.1,0.1c-0.2,0.2-0.4,0.5-0.6,0.6c-0.2,0.1-0.4,0.3-0.6,0.4c-0.2,0.1-0.3,0.1-0.5,0.1
		c-0.1,0-0.2-0.1-0.3-0.1c-1.5-0.8-3-1.5-4.4-2.3c-0.1,0-0.1-0.1-0.1-0.2c-0.1-0.3-0.3-0.6-0.3-0.9c0-0.3,0-0.6,0.1-1
		c0-0.1,0.1-0.2,0.2-0.2c0.2,0.1,0.4,0.2,0.6,0.3c0.9,0.4,1.8,0.9,2.8,1.4c1.1,0.6,2.2,1.1,3.3,1.7C29.2,21.1,29.2,21.2,29.2,21.2z"
		/>
	<path class="st1" d="M30.2,18.7c-0.1,0.6-0.3,1.2-0.6,1.8c-2.3-1.1-4.6-2.3-6.9-3.4c0-0.3,0-0.6-0.1-1c-0.1-0.4-0.4-0.8-0.8-1.1
		c-0.4-0.3-0.9-0.5-1.4-0.6c-0.3,0-0.6,0-1,0c-1.9,0-3.9-0.1-5.8,0c-0.9,0-1.7,0-2.6,0.1c-0.4,0-0.7,0.1-1.1,0.2
		c-0.4,0.2-0.7,0.5-0.8,0.9C8.9,16,8.8,16.5,8.8,17c-2.4,1-4.7,2.1-7.1,3.1c0-0.5,0-0.9,0-1.4c0-0.9,0.2-1.8,0.4-2.8
		c0-0.2,0.1-0.4,0.1-0.6l0.7-1.3C3,14,3.2,13.8,3.3,13.7c0.6-0.7,1.3-1.2,2.1-1.6c1-0.6,2.1-1,3.2-1.3c2-0.6,4-0.9,6.1-1.1
		c0.4,0,0.9-0.1,1.3-0.1c1,0,1.9,0.1,2.8,0.3c1.1,0.2,2.2,0.5,3.3,0.8c1.8,0.6,3.6,1.4,5.3,2.2l0.3,0.2c0.6,0.3,1.1,0.8,1.5,1.3
		c0.5,0.6,0.8,1.3,0.9,2C30.4,17.1,30.3,17.9,30.2,18.7z"/>
	<path class="st1" d="M9.1,19.6c-0.1,0.2-0.2,0.4-0.4,0.5c-0.3,0.2-0.6,0.3-0.8,0.5c-1.1,0.5-2.3,1-3.4,1.5
		c-0.2,0.1-0.4,0.2-0.7,0.2c-0.2,0-0.4,0-0.6-0.1l0,0c-0.5-0.4-0.9-0.9-1.4-1.4c2.4-1.1,4.9-2.1,7.3-3.2C9.1,18.3,9.1,19,9.1,19.6z"
		/>
</g>
</svg>
