<?xml version="1.0" encoding="utf-8"?>
<!-- Generator: Adobe Illustrator 21.1.0, SVG Export Plug-In . SVG Version: 6.00 Build 0)  -->
<svg version="1.1" id="Layer_1" xmlns="http://www.w3.org/2000/svg" xmlns:xlink="http://www.w3.org/1999/xlink" x="0px" y="0px"
	 viewBox="0 0 258.1 45" style="enable-background:new 0 0 258.1 45;" xml:space="preserve">
<style type="text/css">
	.st0{fill:#FFFFFF;}
	.st1{fill:#2F4575;}
	.st2{fill:#3A558F;}
</style>
<g id="Group_32" transform="translate(0 49)">
	<g id="Group_29" transform="translate(973 209)">
		<path id="Path_251" class="st0" d="M-966.5-253.9c-2,0.7-3.3,2.7-3.1,4.9c0,9.7-0.1,19.5,0,29.3c0,2.5,2.1,4.6,4.7,4.5
			c0.1,0,0.3,0,0.4,0h241.7c1.8,0.2,3.5-0.7,4.5-2.3c0.7-1.2,0.6-2.6,0.6-4c-0.1-9.4,0-18.7-0.1-28.1c0-2.3-1.7-4.2-4-4.5
			c-2.1-0.2-4.2-0.1-6.3-0.1h-232.4C-962.4-254.1-964.5-254.4-966.5-253.9"/>
		<path id="Path_252" class="st0" d="M-951.9-245.7c1.9-1.5,4.6-1.1,6.9-1.1c0,1.3,0,2.6-0.1,3.9c-1.1,0.1-2.3,0.2-3.4,0.2
			c-0.1,1.1-0.2,2.2-0.2,3.4c1.2,0,2.4,0.1,3.6,0.1c-0.1,1.3-0.3,2.6-0.4,3.9c-1,0.1-2.1,0.1-3.1,0.1c-0.1,3.8-0.1,7.6,0,11.4
			c-1.6,0.1-3.2,0.1-4.8,0.1c-0.1-3.8,0.1-7.6-0.1-11.5c-0.8-0.1-1.5-0.1-2.3-0.2v-3.8c0.7-0.1,1.5-0.1,2.3-0.2
			C-953.3-241.5-953.7-244.1-951.9-245.7z"/>
		<g id="_x23_30477aff_1_" transform="translate(0.018 0.016)">
			<path id="Path_253" class="st1" d="M-966.5-253.9c1.9-0.5,4.1-0.2,6.1-0.3H-728c2.1,0.1,4.2-0.1,6.3,0.1c2.3,0.3,4,2.2,4,4.5
				c0.1,9.4,0,18.7,0.1,28.1c0.1,1.4-0.1,2.7-0.6,4c-0.9,1.5-2.7,2.4-4.5,2.3h-241.7c-2.6,0.2-4.8-1.7-5.1-4.2c0-0.1,0-0.2,0-0.3
				c-0.1-9.7,0-19.5-0.1-29.3C-969.8-251.2-968.5-253.2-966.5-253.9 M-967.1-252.3c-1.3,1-1.3,2.9-1.3,4.4c0.1,8.8,0.1,17.6,0,26.4
				c0.1,1.4-0.1,3,1,4.1c1.2,1.2,3.1,1,4.7,1c9.9-0.1,19.8,0.1,29.7-0.1c0.1-12.1,0.1-24.3,0-36.5c-9.9-0.2-19.8,0-29.7-0.1
				C-964.2-252.9-965.8-253.2-967.1-252.3 M-931.7-252.9c-0.1,12.1-0.1,24.3,0,36.5c69.4,0.2,138.9,0,208.3,0.1
				c1.2-0.1,2.6-0.1,3.6-1c1.1-1.1,1-2.7,1-4.1c-0.1-9,0-18,0-27c0-1.6-0.3-3.6-2.1-4.2c-2.1-0.6-4.4-0.3-6.5-0.3
				C-795.5-252.9-863.6-253.1-931.7-252.9z"/>
		</g>
		<g id="_x23_3b5998ff_1_" transform="translate(1.171 1.182)">
			<path id="Path_254" class="st2" d="M-968.3-253.4c1.3-0.9,2.9-0.7,4.4-0.8c9.9,0.1,19.8-0.1,29.7,0.1c0.1,12.2,0.1,24.4,0,36.5
				c-9.9,0.2-19.8-0.1-29.7,0.1c-1.6-0.1-3.4,0.2-4.7-1c-1.1-1.1-1-2.7-1-4.1c0.1-8.8,0.1-17.6,0-26.4
				C-969.5-250.6-969.6-252.4-968.3-253.4 M-953.1-246.9c-1.7,1.6-1.4,4.2-1.5,6.4c-0.7,0.1-1.5,0.1-2.3,0.2v3.8
				c0.8,0.1,1.5,0.1,2.3,0.2c0.1,3.8,0,7.6,0.1,11.5c1.6,0,3.2,0,4.8-0.1c-0.1-3.8-0.1-7.6,0-11.4c1-0.1,2.1-0.1,3.1-0.1
				c0.1-1.3,0.3-2.6,0.4-3.9c-1.2-0.1-2.4-0.1-3.6-0.1c0-1.1,0.1-2.3,0.2-3.4c1.1-0.1,2.3-0.2,3.4-0.2c0-1.3,0-2.6,0.1-3.9
				C-948.5-248-951.2-248.4-953.1-246.9z"/>
			<path id="Path_255" class="st2" d="M-932.8-254.1c68.1-0.1,136.2,0,204.3-0.1c2.2,0.1,4.4-0.2,6.5,0.3c1.7,0.6,2.1,2.6,2.1,4.2
				c0,9-0.1,18,0,27c-0.1,1.4,0.1,3-1,4.1c-0.9,1-2.3,1-3.5,1c-69.4-0.1-138.9,0.1-208.3-0.1C-933-229.8-932.9-241.9-932.8-254.1z"
				/>
		</g>
	</g>
</g>
</svg>
